<svg width="604" height="604" viewBox="0 0 604 604" fill="none" xmlns="http://www.w3.org/2000/svg">
<mask id="path-1-inside-1_28_167" fill="white">
<path d="M391.597 0C392.149 0.000110948 392.597 0.447784 392.597 1V77.9609C393.853 78.4693 395.103 78.9878 396.349 79.5166L450.771 25.0947C451.162 24.7042 451.796 24.7042 452.187 25.0947L578.899 151.809C579.29 152.199 579.29 152.832 578.899 153.223L524.479 207.642C525.01 208.89 525.528 210.144 526.038 211.403H603C603.552 211.403 604 211.851 604 212.403V391.604C604 392.156 603.552 392.604 603 392.604H526.035C525.526 393.86 525.008 395.111 524.479 396.357L578.9 450.779C579.291 451.17 579.291 451.803 578.9 452.193L452.188 578.906C451.797 579.297 451.164 579.297 450.773 578.906L396.35 524.482C395.104 525.011 393.853 525.53 392.597 526.038V603C392.597 603.552 392.149 604 391.597 604H212.396C211.844 604 211.396 603.552 211.396 603V526.035C210.14 525.526 208.888 525.009 207.642 524.479L153.222 578.9C152.831 579.291 152.197 579.291 151.807 578.9L25.0938 452.188C24.7032 451.797 24.7032 451.163 25.0938 450.772L79.5166 396.349C78.9888 395.106 78.4723 393.857 77.9648 392.604H1C0.44778 392.604 0.000101615 392.156 0 391.604V212.403C3.76014e-06 211.851 0.447718 211.403 1 211.403H77.9619C78.4703 210.147 78.9878 208.896 79.5166 207.65L25.0947 153.229C24.7043 152.838 24.7044 152.205 25.0947 151.814L151.809 25.1006C152.199 24.7102 152.832 24.7101 153.223 25.1006L207.643 79.5205C208.889 78.9914 210.14 78.4725 211.396 77.9639V1C211.396 0.447718 211.844 0 212.396 0H391.597Z"/>
</mask>
<path d="M391.597 0L391.598 -6H391.597V0ZM392.597 1H398.597V1L392.597 1ZM392.597 77.9609H386.597V82.0052L390.345 83.5226L392.597 77.9609ZM396.349 79.5166L394.004 85.0394L397.729 86.6213L400.591 83.7593L396.349 79.5166ZM450.771 25.0947L455.014 29.3374L455.014 29.3374L450.771 25.0947ZM452.187 25.0947L456.429 20.8521V20.8521L452.187 25.0947ZM578.899 151.809L583.143 147.567L583.142 147.566L578.899 151.809ZM578.899 153.223L583.142 157.465V157.465L578.899 153.223ZM524.479 207.642L520.237 203.399L517.375 206.261L518.957 209.987L524.479 207.642ZM526.038 211.403L520.476 213.655L521.994 217.403H526.038V211.403ZM604 212.403H610V212.403L604 212.403ZM604 391.604L610 391.605V391.604H604ZM526.035 392.604V386.604H521.991L520.474 390.352L526.035 392.604ZM524.479 396.357L518.956 394.012L517.374 397.738L520.236 400.6L524.479 396.357ZM396.35 524.482L400.592 520.24L397.73 517.378L394.005 518.96L396.35 524.482ZM392.597 526.038L390.345 520.476L386.597 521.994V526.038H392.597ZM391.597 604V610H391.598L391.597 604ZM211.396 526.035H217.396V521.991L213.648 520.474L211.396 526.035ZM207.642 524.479L209.987 518.957L206.261 517.375L203.399 520.237L207.642 524.479ZM153.222 578.9L157.464 583.143H157.464L153.222 578.9ZM151.807 578.9L147.564 583.143L151.807 578.9ZM25.0938 452.188L29.3364 447.945L25.0938 452.188ZM25.0938 450.772L29.3364 455.015L29.3364 455.015L25.0938 450.772ZM79.5166 396.349L83.7593 400.591L86.6213 397.729L85.0394 394.004L79.5166 396.349ZM77.9648 392.604L83.5264 390.352L82.0089 386.604H77.9648V392.604ZM1 392.604L0.999968 398.604H1V392.604ZM0 391.604H-6V391.605L0 391.604ZM0 212.403L-6 212.403V212.403H0ZM1 211.403V205.403H1L1 211.403ZM77.9619 211.403V217.403H82.0062L83.5236 213.655L77.9619 211.403ZM79.5166 207.65L85.0394 209.995L86.6213 206.27L83.7592 203.408L79.5166 207.65ZM25.0947 153.229L29.3374 148.986L25.0947 153.229ZM25.0947 151.814L20.8521 147.572L20.8509 147.573L25.0947 151.814ZM151.809 25.1006L147.567 20.8571L147.566 20.8579L151.809 25.1006ZM153.223 25.1006L148.98 29.3432L153.223 25.1006ZM207.643 79.5205L203.4 83.7631L206.262 86.6253L209.988 85.0432L207.643 79.5205ZM211.396 77.9639L213.648 83.5255L217.396 82.008V77.9639H211.396ZM211.396 1L205.396 0.999968V1H211.396ZM391.597 0L391.595 6C388.836 5.99945 386.597 3.76269 386.597 1L392.597 1L398.597 1C398.597 -2.86713 395.462 -5.99922 391.598 -6L391.597 0ZM392.597 1H386.597V77.9609H392.597H398.597V1H392.597ZM392.597 77.9609L390.345 83.5226C391.57 84.0184 392.79 84.5239 394.004 85.0394L396.349 79.5166L398.694 73.9938C397.417 73.4517 396.135 72.9202 394.848 72.3993L392.597 77.9609ZM396.349 79.5166L400.591 83.7593L455.014 29.3374L450.771 25.0947L446.529 20.852L392.106 75.2739L396.349 79.5166ZM450.771 25.0947L455.014 29.3374C453.061 31.29 449.897 31.29 447.944 29.3374L452.187 25.0947L456.429 20.8521C453.695 18.1184 449.263 18.1184 446.529 20.8521L450.771 25.0947ZM452.187 25.0947L447.944 29.3374L574.657 156.051L578.899 151.809L583.142 147.566L456.429 20.8521L452.187 25.0947ZM578.899 151.809L574.656 156.05C572.705 154.099 572.703 150.933 574.657 148.98L578.899 153.223L583.142 157.465C585.876 154.731 585.875 150.299 583.143 147.567L578.899 151.809ZM578.899 153.223L574.657 148.98L520.237 203.399L524.479 207.642L528.722 211.884L583.142 157.465L578.899 153.223ZM524.479 207.642L518.957 209.987C519.472 211.201 519.978 212.424 520.476 213.655L526.038 211.403L531.6 209.152C531.079 207.865 530.547 206.579 530.002 205.296L524.479 207.642ZM526.038 211.403V217.403H603V211.403V205.403H526.038V211.403ZM603 211.403V217.403C600.239 217.403 598 215.165 598 212.403L604 212.403L610 212.403C610 208.537 606.866 205.403 603 205.403V211.403ZM604 212.403H598V391.604H604H610V212.403H604ZM604 391.604L598 391.602C598 388.843 600.237 386.604 603 386.604V392.604V398.604C606.867 398.604 609.999 395.469 610 391.605L604 391.604ZM603 392.604V386.604H526.035V392.604V398.604H603V392.604ZM526.035 392.604L520.474 390.352C519.978 391.578 519.472 392.798 518.956 394.012L524.479 396.357L530.001 398.703C530.544 397.425 531.075 396.143 531.597 394.855L526.035 392.604ZM524.479 396.357L520.236 400.6L574.658 455.022L578.9 450.779L583.143 446.537L528.721 392.115L524.479 396.357ZM578.9 450.779L574.658 455.022C572.705 453.069 572.705 449.903 574.658 447.951L578.9 452.193L583.143 456.436C585.877 453.702 585.877 449.27 583.143 446.537L578.9 450.779ZM578.9 452.193L574.658 447.951L447.945 574.664L452.188 578.906L456.43 583.149L583.143 456.436L578.9 452.193ZM452.188 578.906L447.945 574.664C449.897 572.711 453.063 572.711 455.016 574.664L450.773 578.906L446.531 583.149C449.264 585.883 453.696 585.883 456.43 583.149L452.188 578.906ZM450.773 578.906L455.016 574.664L400.592 520.24L396.35 524.482L392.107 528.725L446.531 583.149L450.773 578.906ZM396.35 524.482L394.005 518.96C392.791 519.475 391.572 519.98 390.345 520.476L392.597 526.038L394.848 531.6C396.134 531.079 397.417 530.548 398.695 530.005L396.35 524.482ZM392.597 526.038H386.597V603H392.597H398.597V526.038H392.597ZM392.597 603H386.597C386.597 600.237 388.836 598.001 391.595 598L391.597 604L391.598 610C395.462 609.999 398.597 606.867 398.597 603H392.597ZM391.597 604V598H212.396V604V610H391.597V604ZM212.396 604V598C215.158 598 217.396 600.239 217.396 603H211.396H205.396C205.396 606.866 208.53 610 212.396 610V604ZM211.396 603H217.396V526.035H211.396H205.396V603H211.396ZM211.396 526.035L213.648 520.474C212.419 519.976 211.198 519.471 209.987 518.957L207.642 524.479L205.296 530.002C206.577 530.546 207.861 531.077 209.145 531.597L211.396 526.035ZM207.642 524.479L203.399 520.237L148.979 574.658L153.222 578.9L157.464 583.143L211.884 528.722L207.642 524.479ZM153.222 578.9L148.979 574.658C150.932 572.705 154.097 572.705 156.049 574.658L151.807 578.9L147.564 583.143C150.298 585.877 154.731 585.877 157.464 583.143L153.222 578.9ZM151.807 578.9L156.049 574.658L29.3364 447.945L25.0938 452.188L20.8511 456.43L147.564 583.143L151.807 578.9ZM25.0938 452.188L29.3364 447.945C31.289 449.897 31.289 453.062 29.3364 455.015L25.0938 450.772L20.8511 446.53C18.1174 449.263 18.1174 453.696 20.8511 456.43L25.0938 452.188ZM25.0938 450.772L29.3364 455.015L83.7593 400.591L79.5166 396.349L75.2739 392.106L20.8511 446.53L25.0938 450.772ZM79.5166 396.349L85.0394 394.004C84.5261 392.795 84.0225 391.578 83.5264 390.352L77.9648 392.604L72.4033 394.855C72.9221 396.137 73.4516 397.417 73.9938 398.694L79.5166 396.349ZM77.9648 392.604V386.604H1V392.604V398.604H77.9648V392.604ZM1 392.604L1.00003 386.604C3.76256 386.604 5.99949 388.843 6 391.602L0 391.604L-6 391.605C-5.99929 395.469 -2.867 398.603 0.999968 398.604L1 392.604ZM0 391.604H6V212.403H0H-6V391.604H0ZM0 212.403L6 212.403C5.99998 215.165 3.76147 217.403 1 217.403L1 211.403L1 205.403C-2.86603 205.403 -5.99997 208.537 -6 212.403L0 212.403ZM1 211.403V217.403H77.9619V211.403V205.403H1V211.403ZM77.9619 211.403L83.5236 213.655C84.0209 212.426 84.5253 211.206 85.0394 209.995L79.5166 207.65L73.9938 205.305C73.4502 206.586 72.9198 207.868 72.4003 209.152L77.9619 211.403ZM79.5166 207.65L83.7592 203.408L29.3374 148.986L25.0947 153.229L20.8521 157.471L75.274 211.893L79.5166 207.65ZM25.0947 153.229L29.3374 148.986C31.2912 150.94 31.2886 154.105 29.3385 156.056L25.0947 151.814L20.8509 147.573C18.1202 150.305 18.1173 154.736 20.8521 157.471L25.0947 153.229ZM25.0947 151.814L29.3374 156.057L156.051 29.3432L151.809 25.1006L147.566 20.8579L20.8521 147.572L25.0947 151.814ZM151.809 25.1006L156.05 29.344C154.099 31.2949 150.933 31.2967 148.98 29.3432L153.223 25.1006L157.465 20.8579C154.731 18.1235 150.299 18.1255 147.567 20.8571L151.809 25.1006ZM153.223 25.1006L148.98 29.3432L203.4 83.7631L207.643 79.5205L211.885 75.2779L157.465 20.8579L153.223 25.1006ZM207.643 79.5205L209.988 85.0432C211.202 84.5274 212.422 84.0215 213.648 83.5255L211.396 77.9639L209.145 72.4023C207.857 72.9236 206.575 73.4554 205.297 73.9978L207.643 79.5205ZM211.396 77.9639H217.396V1H211.396H205.396V77.9639H211.396ZM211.396 1L217.396 1.00003C217.396 3.7614 215.158 6 212.396 6V0V-6C208.53 -6 205.396 -2.86597 205.396 0.999968L211.396 1ZM212.396 0V6H391.597V0V-6H212.396V0Z" fill="#DCE0E5" fill-opacity="0.4" mask="url(#path-1-inside-1_28_167)"/>
<circle cx="302" cy="302" r="165" stroke="#DCE0E5" stroke-opacity="0.4" stroke-width="6"/>
<mask id="path-4-outside-2_28_167" maskUnits="userSpaceOnUse" x="214" y="233" width="199" height="145" fill="black">
<rect fill="white" x="214" y="233" width="199" height="145"/>
<path d="M223.944 377L280.544 249.8L287.744 262.8H215.344V236.2H305.144L308.144 251.6L254.544 377H223.944ZM361.203 377C354.136 377 347.47 375.733 341.203 373.2C335.07 370.667 329.67 367.133 325.003 362.6C320.47 358.067 316.87 352.733 314.203 346.6C311.67 340.467 310.403 333.867 310.403 326.8C310.403 322.4 310.936 317.933 312.003 313.4C313.07 308.733 314.536 303.933 316.403 299C318.403 294.067 320.803 288.933 323.603 283.6C326.403 278.267 329.536 272.733 333.003 267L352.203 234.8H380.203L381.003 236.8L355.603 277.8C352.003 283.667 348.803 289.267 346.003 294.6C343.336 299.933 340.936 305.067 338.803 310C336.803 314.933 334.936 319.933 333.203 325L327.403 309C329.136 304.467 331.47 300.4 334.403 296.8C337.336 293.067 340.67 289.933 344.403 287.4C348.136 284.733 352.07 282.733 356.203 281.4C360.336 279.933 364.403 279.2 368.403 279.2C376.27 279.2 383.47 281.333 390.003 285.6C396.67 289.733 401.936 295.267 405.803 302.2C409.803 309.133 411.803 316.733 411.803 325C411.803 335 409.603 343.933 405.203 351.8C400.936 359.533 394.936 365.667 387.203 370.2C379.603 374.733 370.936 377 361.203 377ZM361.603 351.6C366.136 351.6 370.136 350.6 373.603 348.6C377.203 346.467 380.003 343.533 382.003 339.8C384.003 336.067 385.003 331.8 385.003 327C385.003 322.867 383.936 319 381.803 315.4C379.803 311.667 377.003 308.667 373.403 306.4C369.936 304.133 366.07 303 361.803 303C357.136 303 352.936 304.133 349.203 306.4C345.603 308.533 342.736 311.4 340.603 315C338.603 318.467 337.603 322.4 337.603 326.8C337.603 331.6 338.603 335.867 340.603 339.6C342.736 343.2 345.603 346.133 349.203 348.4C352.803 350.533 356.936 351.6 361.603 351.6Z"/>
</mask>
<path d="M223.944 377L280.544 249.8L287.744 262.8H215.344V236.2H305.144L308.144 251.6L254.544 377H223.944ZM361.203 377C354.136 377 347.47 375.733 341.203 373.2C335.07 370.667 329.67 367.133 325.003 362.6C320.47 358.067 316.87 352.733 314.203 346.6C311.67 340.467 310.403 333.867 310.403 326.8C310.403 322.4 310.936 317.933 312.003 313.4C313.07 308.733 314.536 303.933 316.403 299C318.403 294.067 320.803 288.933 323.603 283.6C326.403 278.267 329.536 272.733 333.003 267L352.203 234.8H380.203L381.003 236.8L355.603 277.8C352.003 283.667 348.803 289.267 346.003 294.6C343.336 299.933 340.936 305.067 338.803 310C336.803 314.933 334.936 319.933 333.203 325L327.403 309C329.136 304.467 331.47 300.4 334.403 296.8C337.336 293.067 340.67 289.933 344.403 287.4C348.136 284.733 352.07 282.733 356.203 281.4C360.336 279.933 364.403 279.2 368.403 279.2C376.27 279.2 383.47 281.333 390.003 285.6C396.67 289.733 401.936 295.267 405.803 302.2C409.803 309.133 411.803 316.733 411.803 325C411.803 335 409.603 343.933 405.203 351.8C400.936 359.533 394.936 365.667 387.203 370.2C379.603 374.733 370.936 377 361.203 377ZM361.603 351.6C366.136 351.6 370.136 350.6 373.603 348.6C377.203 346.467 380.003 343.533 382.003 339.8C384.003 336.067 385.003 331.8 385.003 327C385.003 322.867 383.936 319 381.803 315.4C379.803 311.667 377.003 308.667 373.403 306.4C369.936 304.133 366.07 303 361.803 303C357.136 303 352.936 304.133 349.203 306.4C345.603 308.533 342.736 311.4 340.603 315C338.603 318.467 337.603 322.4 337.603 326.8C337.603 331.6 338.603 335.867 340.603 339.6C342.736 343.2 345.603 346.133 349.203 348.4C352.803 350.533 356.936 351.6 361.603 351.6Z" fill="#DCE0E5" fill-opacity="0.4"/>
<path d="M223.944 377L223.03 376.593L222.404 378H223.944V377ZM280.544 249.8L281.419 249.315L280.446 247.56L279.63 249.393L280.544 249.8ZM287.744 262.8V263.8H289.441L288.619 262.315L287.744 262.8ZM215.344 262.8H214.344V263.8H215.344V262.8ZM215.344 236.2V235.2H214.344V236.2H215.344ZM305.144 236.2L306.125 236.009L305.968 235.2H305.144V236.2ZM308.144 251.6L309.063 251.993L309.184 251.71L309.125 251.409L308.144 251.6ZM254.544 377V378H255.204L255.463 377.393L254.544 377ZM223.944 377L224.857 377.407L281.457 250.207L280.544 249.8L279.63 249.393L223.03 376.593L223.944 377ZM280.544 249.8L279.669 250.284L286.869 263.284L287.744 262.8L288.619 262.315L281.419 249.315L280.544 249.8ZM287.744 262.8V261.8H215.344V262.8V263.8H287.744V262.8ZM215.344 262.8H216.344V236.2H215.344H214.344V262.8H215.344ZM215.344 236.2V237.2H305.144V236.2V235.2H215.344V236.2ZM305.144 236.2L304.162 236.391L307.162 251.791L308.144 251.6L309.125 251.409L306.125 236.009L305.144 236.2ZM308.144 251.6L307.224 251.207L253.624 376.607L254.544 377L255.463 377.393L309.063 251.993L308.144 251.6ZM254.544 377V376H223.944V377V378H254.544V377ZM341.203 373.2L340.821 374.124L340.828 374.127L341.203 373.2ZM325.003 362.6L324.296 363.307L324.301 363.312L324.306 363.317L325.003 362.6ZM314.203 346.6L313.279 346.982L313.282 346.99L313.286 346.999L314.203 346.6ZM312.003 313.4L312.977 313.629L312.978 313.623L312.003 313.4ZM316.403 299L315.476 298.624L315.472 298.635L315.468 298.646L316.403 299ZM323.603 283.6L324.489 284.065L323.603 283.6ZM333.003 267L333.859 267.517L333.862 267.512L333.003 267ZM352.203 234.8V233.8H351.635L351.344 234.288L352.203 234.8ZM380.203 234.8L381.132 234.429L380.88 233.8H380.203V234.8ZM381.003 236.8L381.853 237.327L382.119 236.897L381.932 236.429L381.003 236.8ZM355.603 277.8L354.753 277.273L354.751 277.277L355.603 277.8ZM346.003 294.6L345.118 294.135L345.113 294.144L345.109 294.153L346.003 294.6ZM338.803 310L337.885 309.603L337.881 309.614L337.876 309.624L338.803 310ZM333.203 325L332.263 325.341L333.23 328.01L334.149 325.324L333.203 325ZM327.403 309L326.469 308.643L326.336 308.991L326.463 309.341L327.403 309ZM334.403 296.8L335.178 297.432L335.184 297.425L335.189 297.418L334.403 296.8ZM344.403 287.4L344.965 288.227L344.975 288.221L344.984 288.214L344.403 287.4ZM356.203 281.4L356.51 282.352L356.524 282.347L356.538 282.342L356.203 281.4ZM390.003 285.6L389.456 286.437L389.466 286.444L389.476 286.45L390.003 285.6ZM405.803 302.2L404.93 302.687L404.933 302.693L404.937 302.7L405.803 302.2ZM405.203 351.8L404.33 351.312L404.328 351.317L405.203 351.8ZM387.203 370.2L386.697 369.337L386.691 369.341L387.203 370.2ZM373.603 348.6L374.103 349.466L374.113 349.46L373.603 348.6ZM382.003 339.8L382.885 340.272L382.003 339.8ZM381.803 315.4L380.922 315.872L380.932 315.891L380.943 315.91L381.803 315.4ZM373.403 306.4L372.856 307.237L372.863 307.242L372.87 307.246L373.403 306.4ZM349.203 306.4L349.713 307.26L349.722 307.255L349.203 306.4ZM340.603 315L339.743 314.49L339.737 314.5L340.603 315ZM340.603 339.6L339.722 340.072L339.732 340.091L339.743 340.11L340.603 339.6ZM349.203 348.4L348.67 349.246L348.682 349.253L348.693 349.26L349.203 348.4ZM361.203 377V376C354.259 376 347.72 374.756 341.578 372.273L341.203 373.2L340.828 374.127C347.219 376.711 354.014 378 361.203 378V377ZM341.203 373.2L341.585 372.276C335.566 369.79 330.274 366.326 325.7 361.883L325.003 362.6L324.306 363.317C329.066 367.941 334.573 371.544 340.821 374.124L341.203 373.2ZM325.003 362.6L325.71 361.893C321.269 357.452 317.739 352.225 315.12 346.201L314.203 346.6L313.286 346.999C316.001 353.242 319.67 358.681 324.296 363.307L325.003 362.6ZM314.203 346.6L315.127 346.218C312.647 340.214 311.403 333.744 311.403 326.8H310.403H309.403C309.403 333.989 310.692 340.72 313.279 346.982L314.203 346.6ZM310.403 326.8H311.403C311.403 322.481 311.927 318.092 312.977 313.629L312.003 313.4L311.03 313.171C309.946 317.775 309.403 322.319 309.403 326.8H310.403ZM312.003 313.4L312.978 313.623C314.034 309.005 315.486 304.249 317.338 299.354L316.403 299L315.468 298.646C313.587 303.618 312.106 308.462 311.028 313.177L312.003 313.4ZM316.403 299L317.33 299.376C319.316 294.476 321.702 289.373 324.489 284.065L323.603 283.6L322.718 283.135C319.904 288.494 317.49 293.657 315.476 298.624L316.403 299ZM323.603 283.6L324.489 284.065C327.278 278.751 330.401 273.235 333.859 267.517L333.003 267L332.147 266.483C328.671 272.231 325.528 277.782 322.718 283.135L323.603 283.6ZM333.003 267L333.862 267.512L353.062 235.312L352.203 234.8L351.344 234.288L332.144 266.488L333.003 267ZM352.203 234.8V235.8H380.203V234.8V233.8H352.203V234.8ZM380.203 234.8L379.275 235.171L380.075 237.171L381.003 236.8L381.932 236.429L381.132 234.429L380.203 234.8ZM381.003 236.8L380.153 236.273L354.753 277.273L355.603 277.8L356.453 278.327L381.853 237.327L381.003 236.8ZM355.603 277.8L354.751 277.277C351.141 283.16 347.929 288.78 345.118 294.135L346.003 294.6L346.889 295.065C349.677 289.754 352.866 284.173 356.455 278.323L355.603 277.8ZM346.003 294.6L345.109 294.153C342.435 299.501 340.027 304.651 337.885 309.603L338.803 310L339.721 310.397C341.846 305.482 344.238 300.366 346.898 295.047L346.003 294.6ZM338.803 310L337.876 309.624C335.869 314.575 333.996 319.592 332.257 324.676L333.203 325L334.149 325.324C335.877 320.274 337.737 315.292 339.73 310.376L338.803 310ZM333.203 325L334.143 324.659L328.343 308.659L327.403 309L326.463 309.341L332.263 325.341L333.203 325ZM327.403 309L328.337 309.357C330.034 304.919 332.315 300.946 335.178 297.432L334.403 296.8L333.628 296.168C330.624 299.854 328.239 304.015 326.469 308.643L327.403 309ZM334.403 296.8L335.189 297.418C338.062 293.761 341.321 290.7 344.965 288.227L344.403 287.4L343.842 286.573C340.019 289.167 336.61 292.372 333.617 296.182L334.403 296.8ZM344.403 287.4L344.984 288.214C348.639 285.604 352.48 283.652 356.51 282.352L356.203 281.4L355.896 280.448C351.659 281.815 347.634 283.863 343.822 286.586L344.403 287.4ZM356.203 281.4L356.538 282.342C360.574 280.91 364.528 280.2 368.403 280.2V279.2V278.2C364.279 278.2 360.099 278.956 355.869 280.458L356.203 281.4ZM368.403 279.2V280.2C376.077 280.2 383.087 282.278 389.456 286.437L390.003 285.6L390.55 284.763C383.853 280.389 376.462 278.2 368.403 278.2V279.2ZM390.003 285.6L389.476 286.45C395.997 290.493 401.145 295.9 404.93 302.687L405.803 302.2L406.676 301.713C402.728 294.633 397.343 288.974 390.53 284.75L390.003 285.6ZM405.803 302.2L404.937 302.7C408.846 309.476 410.803 316.903 410.803 325H411.803H412.803C412.803 316.564 410.76 308.791 406.669 301.7L405.803 302.2ZM411.803 325H410.803C410.803 334.848 408.638 343.61 404.33 351.312L405.203 351.8L406.076 352.288C410.568 344.256 412.803 335.152 412.803 325H411.803ZM405.203 351.8L404.328 351.317C400.149 358.89 394.278 364.894 386.697 369.337L387.203 370.2L387.709 371.063C395.595 366.44 401.724 360.176 406.079 352.283L405.203 351.8ZM387.203 370.2L386.691 369.341C379.261 373.773 370.775 376 361.203 376V377V378C371.098 378 379.945 375.694 387.715 371.059L387.203 370.2ZM361.603 351.6V352.6C366.288 352.6 370.465 351.565 374.103 349.466L373.603 348.6L373.103 347.734C369.808 349.635 365.985 350.6 361.603 350.6V351.6ZM373.603 348.6L374.113 349.46C377.872 347.233 380.8 344.164 382.885 340.272L382.003 339.8L381.122 339.328C379.207 342.902 376.534 345.701 373.093 347.74L373.603 348.6ZM382.003 339.8L382.885 340.272C384.972 336.375 386.003 331.943 386.003 327H385.003H384.003C384.003 331.657 383.034 335.758 381.122 339.328L382.003 339.8ZM385.003 327H386.003C386.003 322.685 384.887 318.643 382.663 314.89L381.803 315.4L380.943 315.91C382.986 319.357 384.003 323.048 384.003 327H385.003ZM381.803 315.4L382.685 314.928C380.602 311.041 377.682 307.912 373.936 305.554L373.403 306.4L372.87 307.246C376.324 309.421 379.004 312.292 380.922 315.872L381.803 315.4ZM373.403 306.4L373.95 305.563C370.316 303.187 366.258 302 361.803 302V303V304C365.882 304 369.557 305.08 372.856 307.237L373.403 306.4ZM361.803 303V302C356.966 302 352.585 303.177 348.684 305.545L349.203 306.4L349.722 307.255C353.288 305.09 357.306 304 361.803 304V303ZM349.203 306.4L348.693 305.54C344.949 307.759 341.962 310.746 339.743 314.49L340.603 315L341.463 315.51C343.511 312.054 346.257 309.308 349.713 307.26L349.203 306.4ZM340.603 315L339.737 314.5C337.641 318.134 336.603 322.242 336.603 326.8H337.603H338.603C338.603 322.558 339.566 318.8 341.469 315.5L340.603 315ZM337.603 326.8H336.603C336.603 331.743 337.634 336.175 339.722 340.072L340.603 339.6L341.485 339.128C339.572 335.558 338.603 331.457 338.603 326.8H337.603ZM340.603 339.6L339.743 340.11C341.958 343.849 344.938 346.896 348.67 349.246L349.203 348.4L349.736 347.554C346.268 345.37 343.514 342.551 341.463 339.09L340.603 339.6ZM349.203 348.4L348.693 349.26C352.465 351.495 356.778 352.6 361.603 352.6V351.6V350.6C357.095 350.6 353.141 349.571 349.713 347.54L349.203 348.4Z" fill="#DCE0E5" fill-opacity="0.4" mask="url(#path-4-outside-2_28_167)"/>
</svg>
