<svg width="812" height="812" viewBox="0 0 812 812" fill="none" xmlns="http://www.w3.org/2000/svg">
<mask id="path-1-inside-1_132_804" fill="white">
<path d="M526.346 0C526.898 0.000181376 527.346 0.447827 527.346 1V104.72C529.032 105.402 530.712 106.099 532.384 106.809L605.729 33.4648C606.119 33.0744 606.752 33.0745 607.143 33.4648L777.833 204.155C778.223 204.546 778.223 205.179 777.833 205.569L704.492 278.909C705.204 280.586 705.903 282.27 706.588 283.962H810.307C810.859 283.962 811.307 284.41 811.307 284.962V526.354C811.307 526.906 810.859 527.354 810.307 527.354H706.584C705.901 529.041 705.204 530.722 704.493 532.396L777.837 605.739C778.227 606.13 778.227 606.763 777.837 607.153L607.146 777.844C606.756 778.234 606.123 778.234 605.732 777.844L532.386 704.497C530.713 705.207 529.033 705.903 527.346 706.586V810.307C527.346 810.859 526.898 811.306 526.346 811.307H284.953C284.401 811.307 283.953 810.859 283.953 810.307V706.583C282.265 705.9 280.583 705.203 278.909 704.492L205.566 777.836C205.176 778.226 204.543 778.226 204.152 777.836L33.4619 607.146C33.0717 606.755 33.0717 606.122 33.4619 605.731L106.809 532.384C106.1 530.714 105.405 529.037 104.724 527.354H1C0.447715 527.354 0 526.906 0 526.354V284.962C0 284.41 0.447715 283.962 1 283.962H104.721C105.404 282.275 106.099 280.594 106.81 278.921L33.4658 205.577C33.0754 205.187 33.0754 204.554 33.4658 204.163L204.156 33.4727C204.547 33.0825 205.18 33.0823 205.57 33.4727L278.911 106.813C280.585 106.103 282.265 105.407 283.953 104.724V1C283.953 0.447781 284.401 0.000106091 284.953 0H526.346Z"/>
</mask>
<path d="M526.346 0L526.348 -6H526.346V0ZM527.346 104.72H521.346V108.764L525.094 110.281L527.346 104.72ZM532.384 106.809L530.039 112.331L533.764 113.913L536.626 111.051L532.384 106.809ZM605.729 33.4648L609.971 37.7075V37.7075L605.729 33.4648ZM607.143 33.4648L611.385 29.2222L611.384 29.221L607.143 33.4648ZM777.833 204.155L782.077 199.914L782.076 199.913L777.833 204.155ZM777.833 205.569L782.076 209.812V209.812L777.833 205.569ZM704.492 278.909L700.25 274.667L697.387 277.529L698.97 281.254L704.492 278.909ZM706.588 283.962L701.026 286.213L702.544 289.962H706.588V283.962ZM706.584 527.354V521.354H702.54L701.022 525.102L706.584 527.354ZM704.493 532.396L698.97 530.05L697.388 533.776L700.251 536.638L704.493 532.396ZM777.837 605.739L782.08 601.497L782.08 601.497L777.837 605.739ZM777.837 607.153L782.08 611.396L782.082 611.394L777.837 607.153ZM607.146 777.844L611.389 782.087L611.389 782.086L607.146 777.844ZM605.732 777.844L601.49 782.086L601.491 782.087L605.732 777.844ZM532.386 704.497L536.628 700.254L533.766 697.392L530.041 698.974L532.386 704.497ZM527.346 706.586L525.094 701.024L521.346 702.542V706.586H527.346ZM526.346 811.307V817.307H526.348L526.346 811.307ZM284.953 811.307L284.952 817.307H284.953V811.307ZM283.953 706.583H289.953V702.539L286.205 701.021L283.953 706.583ZM278.909 704.492L281.254 698.97L277.529 697.387L274.667 700.25L278.909 704.492ZM205.566 777.836L209.808 782.08L209.809 782.079L205.566 777.836ZM204.152 777.836L199.91 782.079L199.911 782.08L204.152 777.836ZM33.4619 607.146L29.2181 611.387L29.2193 611.388L33.4619 607.146ZM33.4619 605.731L29.2192 601.489L29.2176 601.49L33.4619 605.731ZM106.809 532.384L111.051 536.626L113.913 533.764L112.331 530.039L106.809 532.384ZM104.724 527.354L110.285 525.102L108.768 521.354H104.724V527.354ZM104.721 283.962V289.962H108.765L110.282 286.213L104.721 283.962ZM106.81 278.921L112.332 281.266L113.914 277.54L111.052 274.678L106.81 278.921ZM33.4658 205.577L29.2229 209.82L29.2232 209.82L33.4658 205.577ZM33.4658 204.163L29.2232 199.92L29.2226 199.921L33.4658 204.163ZM204.156 33.4727L199.916 29.2277L199.914 29.23L204.156 33.4727ZM205.57 33.4727L209.813 29.23L209.813 29.2297L205.57 33.4727ZM278.911 106.813L274.668 111.056L277.531 113.918L281.256 112.336L278.911 106.813ZM283.953 104.724L286.204 110.285L289.953 108.768V104.724H283.953ZM284.953 0V-6H284.952L284.953 0ZM526.346 0L526.344 6C523.586 5.99909 521.346 3.76347 521.346 1H527.346H533.346C533.346 -2.86782 530.21 -5.99873 526.348 -6L526.346 0ZM527.346 1H521.346V104.72H527.346H533.346V1H527.346ZM527.346 104.72L525.094 110.281C526.75 110.951 528.398 111.635 530.039 112.331L532.384 106.809L534.729 101.286C533.025 100.562 531.314 99.8533 529.597 99.1581L527.346 104.72ZM532.384 106.809L536.626 111.051L609.971 37.7075L605.729 33.4648L601.486 29.2222L528.141 102.566L532.384 106.809ZM605.729 33.4648L609.971 37.7075C608.017 39.6614 604.852 39.6587 602.901 37.7087L607.143 33.4648L611.384 29.221C608.652 26.4903 604.221 26.4874 601.486 29.2222L605.729 33.4648ZM607.143 33.4648L602.9 37.7075L773.59 208.398L777.833 204.155L782.076 199.913L611.385 29.2222L607.143 33.4648ZM777.833 204.155L773.589 208.396C771.64 206.446 771.636 203.281 773.59 201.327L777.833 205.569L782.076 209.812C784.811 207.077 784.807 202.646 782.077 199.914L777.833 204.155ZM777.833 205.569L773.59 201.327L700.25 274.667L704.492 278.909L708.735 283.152L782.076 209.812L777.833 205.569ZM704.492 278.909L698.97 281.254C699.669 282.901 700.355 284.554 701.026 286.213L706.588 283.962L712.15 281.711C711.452 279.987 710.74 278.271 710.015 276.564L704.492 278.909ZM706.588 283.962V289.962H810.307V283.962V277.962H706.588V283.962ZM810.307 283.962V289.962C807.545 289.962 805.307 287.723 805.307 284.962H811.307H817.307C817.307 281.096 814.172 277.962 810.307 277.962V283.962ZM811.307 284.962H805.307V526.354H811.307H817.307V284.962H811.307ZM811.307 526.354H805.307C805.307 523.592 807.545 521.354 810.307 521.354V527.354V533.354C814.173 533.354 817.307 530.219 817.307 526.354H811.307ZM810.307 527.354V521.354H706.584V527.354V533.354H810.307V527.354ZM706.584 527.354L701.022 525.102C700.352 526.759 699.668 528.408 698.97 530.05L704.493 532.396L710.016 534.741C710.74 533.036 711.45 531.324 712.146 529.605L706.584 527.354ZM704.493 532.396L700.251 536.638L773.594 609.982L777.837 605.739L782.08 601.497L708.736 528.153L704.493 532.396ZM777.837 605.739L773.594 609.981C771.64 608.027 771.643 604.864 773.592 602.913L777.837 607.153L782.082 611.394C784.811 608.662 784.814 604.232 782.08 601.497L777.837 605.739ZM777.837 607.153L773.594 602.911L602.904 773.601L607.146 777.844L611.389 782.086L782.08 611.396L777.837 607.153ZM607.146 777.844L602.904 773.601C604.857 771.648 608.022 771.649 609.974 773.6L605.732 777.844L601.491 782.087C604.224 784.819 608.655 784.82 611.389 782.087L607.146 777.844ZM605.732 777.844L609.975 773.601L536.628 700.254L532.386 704.497L528.143 708.74L601.49 782.086L605.732 777.844ZM532.386 704.497L530.041 698.974C528.401 699.671 526.752 700.353 525.094 701.024L527.346 706.586L529.597 712.148C531.313 711.453 533.025 710.744 534.731 710.02L532.386 704.497ZM527.346 706.586H521.346V810.307H527.346H533.346V706.586H527.346ZM527.346 810.307H521.346C521.346 807.543 523.585 805.307 526.344 805.307L526.346 811.307L526.348 817.307C530.21 817.305 533.346 814.174 533.346 810.307H527.346ZM526.346 811.307V805.307H284.953V811.307V817.307H526.346V811.307ZM284.953 811.307L284.954 805.307C287.714 805.307 289.953 807.544 289.953 810.307H283.953H277.953C277.953 814.174 281.088 817.306 284.952 817.307L284.953 811.307ZM283.953 810.307H289.953V706.583H283.953H277.953V810.307H283.953ZM283.953 706.583L286.205 701.021C284.546 700.35 282.896 699.667 281.254 698.97L278.909 704.492L276.564 710.015C278.271 710.74 279.984 711.449 281.702 712.145L283.953 706.583ZM278.909 704.492L274.667 700.25L201.324 773.593L205.566 777.836L209.809 782.079L283.152 708.735L278.909 704.492ZM205.566 777.836L201.325 773.592C203.278 771.641 206.441 771.641 208.393 773.592L204.152 777.836L199.911 782.08C202.644 784.811 207.074 784.811 209.808 782.08L205.566 777.836ZM204.152 777.836L208.395 773.593L37.7046 602.903L33.4619 607.146L29.2193 611.388L199.91 782.079L204.152 777.836ZM33.4619 607.146L37.7058 602.904C39.6575 604.857 39.6565 608.021 37.7062 609.972L33.4619 605.731L29.2176 601.49C26.4869 604.223 26.4859 608.653 29.2181 611.387L33.4619 607.146ZM33.4619 605.731L37.7046 609.974L111.051 536.626L106.809 532.384L102.566 528.141L29.2192 601.489L33.4619 605.731ZM106.809 532.384L112.331 530.039C111.636 528.402 110.955 526.756 110.285 525.102L104.724 527.354L99.162 529.605C99.8556 531.318 100.563 533.026 101.286 534.729L106.809 532.384ZM104.724 527.354V521.354H1V527.354V533.354H104.724V527.354ZM1 527.354V521.354C3.76142 521.354 6 523.592 6 526.354H0H-6C-6 530.219 -2.86599 533.354 1 533.354V527.354ZM0 526.354H6V284.962H0H-6V526.354H0ZM0 284.962H6C6 287.723 3.7614 289.962 1 289.962V283.962V277.962C-2.86597 277.962 -6 281.096 -6 284.962H0ZM1 283.962V289.962H104.721V283.962V277.962H1V283.962ZM104.721 283.962L110.282 286.213C110.954 284.555 111.636 282.905 112.332 281.266L106.81 278.921L101.287 276.576C100.562 278.283 99.8536 279.995 99.159 281.711L104.721 283.962ZM106.81 278.921L111.052 274.678L37.7085 201.335L33.4658 205.577L29.2232 209.82L102.567 283.164L106.81 278.921ZM33.4658 205.577L37.7087 201.335C39.6614 203.288 39.6607 206.453 37.709 208.405L33.4658 204.163L29.2226 199.921C26.4901 202.654 26.4894 207.086 29.2229 209.82L33.4658 205.577ZM33.4658 204.163L37.7085 208.406L208.399 37.7153L204.156 33.4727L199.914 29.23L29.2232 199.92L33.4658 204.163ZM204.156 33.4727L208.397 37.7176C206.446 39.6656 203.283 39.6699 201.328 37.7156L205.57 33.4727L209.813 29.2297C207.077 26.4947 202.647 26.4994 199.916 29.2277L204.156 33.4727ZM205.57 33.4727L201.328 37.7153L274.668 111.056L278.911 106.813L283.154 102.571L209.813 29.23L205.57 33.4727ZM278.911 106.813L281.256 112.336C282.897 111.64 284.546 110.956 286.204 110.285L283.953 104.724L281.702 99.162C279.985 99.8571 278.272 100.566 276.566 101.291L278.911 106.813ZM283.953 104.724H289.953V1H283.953H277.953V104.724H283.953ZM283.953 1H289.953C289.953 3.76264 287.714 5.99947 284.954 6L284.953 0L284.952 -6C281.088 -5.99926 277.953 -2.86708 277.953 1H283.953ZM284.953 0V6H526.346V0V-6H284.953V0Z" fill="#DCE0E5" fill-opacity="0.07" mask="url(#path-1-inside-1_132_804)"/>
<circle cx="405.654" cy="405.653" r="222.662" stroke="#DCE0E5" stroke-opacity="0.07" stroke-width="6"/>
</svg>
