<svg width="209" height="62" viewBox="0 0 209 62" fill="none" xmlns="http://www.w3.org/2000/svg">
<circle cx="50.5" cy="13.5" r="13.5" fill="#4E575E"/>
<circle cx="13.5" cy="48.5" r="13.5" fill="#4E575E"/>
<circle cx="195.5" cy="48.5" r="13.5" fill="#4E575E"/>
<circle cx="158.5" cy="13.5" r="13.5" fill="#4E575E"/>
<circle cx="86.5" cy="13.5" r="12.5" stroke="#4E575E" stroke-width="2"/>
<circle cx="50.5" cy="48.5" r="12.5" stroke="#4E575E" stroke-width="2"/>
<circle cx="122.5" cy="48.5" r="12.5" stroke="#4E575E" stroke-width="2"/>
<circle cx="158.5" cy="48.5" r="12.5" stroke="#4E575E" stroke-width="2"/>
<circle cx="122.5" cy="13.5" r="12.5" stroke="#4E575E" stroke-width="2"/>
<path d="M13.4865 0C6.0345 0 0 6.048 0 13.5C0 20.952 6.0345 27 13.4865 27C20.952 27 27 20.952 27 13.5C27 6.048 20.952 0 13.4865 0ZM22.842 8.1H18.8595C18.4275 6.4125 17.8065 4.7925 16.9965 3.294C19.4805 4.1445 21.546 5.8725 22.842 8.1ZM13.5 2.754C14.6205 4.374 15.498 6.1695 16.0785 8.1H10.9215C11.502 6.1695 12.3795 4.374 13.5 2.754ZM3.051 16.2C2.835 15.336 2.7 14.4315 2.7 13.5C2.7 12.5685 2.835 11.664 3.051 10.8H7.614C7.506 11.691 7.425 12.582 7.425 13.5C7.425 14.418 7.506 15.309 7.614 16.2H3.051ZM4.158 18.9H8.1405C8.5725 20.5875 9.1935 22.2075 10.0035 23.706C7.5195 22.8555 5.454 21.141 4.158 18.9V18.9ZM8.1405 8.1H4.158C5.454 5.859 7.5195 4.1445 10.0035 3.294C9.1935 4.7925 8.5725 6.4125 8.1405 8.1V8.1ZM13.5 24.246C12.3795 22.626 11.502 20.8305 10.9215 18.9H16.0785C15.498 20.8305 14.6205 22.626 13.5 24.246ZM16.659 16.2H10.341C10.2195 15.309 10.125 14.418 10.125 13.5C10.125 12.582 10.2195 11.6775 10.341 10.8H16.659C16.7805 11.6775 16.875 12.582 16.875 13.5C16.875 14.418 16.7805 15.309 16.659 16.2ZM16.9965 23.706C17.8065 22.2075 18.4275 20.5875 18.8595 18.9H22.842C21.546 21.1275 19.4805 22.8555 16.9965 23.706V23.706ZM19.386 16.2C19.494 15.309 19.575 14.418 19.575 13.5C19.575 12.582 19.494 11.691 19.386 10.8H23.949C24.165 11.664 24.3 12.5685 24.3 13.5C24.3 14.4315 24.165 15.336 23.949 16.2H19.386Z" fill="#4E575E"/>
<path d="M86.4865 35C79.0345 35 73 41.048 73 48.5C73 55.952 79.0345 62 86.4865 62C93.952 62 100 55.952 100 48.5C100 41.048 93.952 35 86.4865 35ZM95.842 43.1H91.8595C91.4275 41.4125 90.8065 39.7925 89.9965 38.294C92.4805 39.1445 94.546 40.8725 95.842 43.1ZM86.5 37.754C87.6205 39.374 88.498 41.1695 89.0785 43.1H83.9215C84.502 41.1695 85.3795 39.374 86.5 37.754ZM76.051 51.2C75.835 50.336 75.7 49.4315 75.7 48.5C75.7 47.5685 75.835 46.664 76.051 45.8H80.614C80.506 46.691 80.425 47.582 80.425 48.5C80.425 49.418 80.506 50.309 80.614 51.2H76.051ZM77.158 53.9H81.1405C81.5725 55.5875 82.1935 57.2075 83.0035 58.706C80.5195 57.8555 78.454 56.141 77.158 53.9V53.9ZM81.1405 43.1H77.158C78.454 40.859 80.5195 39.1445 83.0035 38.294C82.1935 39.7925 81.5725 41.4125 81.1405 43.1V43.1ZM86.5 59.246C85.3795 57.626 84.502 55.8305 83.9215 53.9H89.0785C88.498 55.8305 87.6205 57.626 86.5 59.246ZM89.659 51.2H83.341C83.2195 50.309 83.125 49.418 83.125 48.5C83.125 47.582 83.2195 46.6775 83.341 45.8H89.659C89.7805 46.6775 89.875 47.582 89.875 48.5C89.875 49.418 89.7805 50.309 89.659 51.2ZM89.9965 58.706C90.8065 57.2075 91.4275 55.5875 91.8595 53.9H95.842C94.546 56.1275 92.4805 57.8555 89.9965 58.706V58.706ZM92.386 51.2C92.494 50.309 92.575 49.418 92.575 48.5C92.575 47.582 92.494 46.691 92.386 45.8H96.949C97.165 46.664 97.3 47.5685 97.3 48.5C97.3 49.4315 97.165 50.336 96.949 51.2H92.386Z" fill="#4E575E"/>
<path d="M195.486 0C188.034 0 182 6.048 182 13.5C182 20.952 188.034 27 195.486 27C202.952 27 209 20.952 209 13.5C209 6.048 202.952 0 195.486 0ZM204.842 8.1H200.86C200.428 6.4125 199.807 4.7925 198.997 3.294C201.481 4.1445 203.546 5.8725 204.842 8.1ZM195.5 2.754C196.621 4.374 197.498 6.1695 198.079 8.1H192.922C193.502 6.1695 194.38 4.374 195.5 2.754ZM185.051 16.2C184.835 15.336 184.7 14.4315 184.7 13.5C184.7 12.5685 184.835 11.664 185.051 10.8H189.614C189.506 11.691 189.425 12.582 189.425 13.5C189.425 14.418 189.506 15.309 189.614 16.2H185.051ZM186.158 18.9H190.14C190.572 20.5875 191.193 22.2075 192.003 23.706C189.519 22.8555 187.454 21.141 186.158 18.9V18.9ZM190.14 8.1H186.158C187.454 5.859 189.519 4.1445 192.003 3.294C191.193 4.7925 190.572 6.4125 190.14 8.1V8.1ZM195.5 24.246C194.38 22.626 193.502 20.8305 192.922 18.9H198.079C197.498 20.8305 196.621 22.626 195.5 24.246ZM198.659 16.2H192.341C192.219 15.309 192.125 14.418 192.125 13.5C192.125 12.582 192.219 11.6775 192.341 10.8H198.659C198.781 11.6775 198.875 12.582 198.875 13.5C198.875 14.418 198.781 15.309 198.659 16.2ZM198.997 23.706C199.807 22.2075 200.428 20.5875 200.86 18.9H204.842C203.546 21.1275 201.481 22.8555 198.997 23.706V23.706ZM201.386 16.2C201.494 15.309 201.575 14.418 201.575 13.5C201.575 12.582 201.494 11.691 201.386 10.8H205.949C206.165 11.664 206.3 12.5685 206.3 13.5C206.3 14.4315 206.165 15.336 205.949 16.2H201.386Z" fill="#4E575E"/>
</svg>
