<svg width="160" height="53" viewBox="0 0 160 53" fill="none" xmlns="http://www.w3.org/2000/svg">
<circle cx="26.5" cy="26.5" r="26.5" fill="#24282E"/>
<path fill-rule="evenodd" clip-rule="evenodd" d="M39.6716 14.6989C32.491 14.9807 28.3493 12.3504 27.176 11L27.176 42L34.9198 35.3068C40.4108 30.7977 40.3756 19.6894 39.6716 14.6989ZM14.3284 14.6989C21.509 14.9807 25.6507 12.3504 26.824 11L26.824 42L19.0802 35.3068C13.5892 30.7977 13.6244 19.6894 14.3284 14.6989Z" fill="#FFD218" stroke="#FFD218"/>
<path d="M67.682 42L59.842 22.4H63.286L67.962 34.3C68.186 34.8787 68.382 35.4013 68.55 35.868C68.7367 36.3347 68.8953 36.764 69.026 37.156C69.1567 37.5293 69.278 37.884 69.39 38.22C69.502 38.556 69.614 38.892 69.726 39.228L68.998 39.256C69.1287 38.808 69.2687 38.3413 69.418 37.856C69.5673 37.3707 69.7353 36.8387 69.922 36.26C70.1273 35.6813 70.37 35.028 70.65 34.3L74.99 22.4H78.518L70.622 42H67.682ZM84.0697 42.28C82.8563 42.28 81.7457 41.944 80.7377 41.272C79.7483 40.6 78.955 39.6853 78.3577 38.528C77.7603 37.3707 77.4617 36.064 77.4617 34.608C77.4617 33.1333 77.7603 31.8267 78.3577 30.688C78.9737 29.5307 79.795 28.6253 80.8217 27.972C81.867 27.3187 83.0337 26.992 84.3217 26.992C85.087 26.992 85.787 27.104 86.4217 27.328C87.0563 27.552 87.607 27.8693 88.0737 28.28C88.559 28.672 88.951 29.1293 89.2497 29.652C89.567 30.1747 89.763 30.7347 89.8377 31.332L89.1937 31.108V27.3H92.1057V42H89.1937V38.5L89.8657 38.304C89.7537 38.808 89.5203 39.3027 89.1657 39.788C88.8297 40.2547 88.391 40.6747 87.8497 41.048C87.327 41.4213 86.739 41.72 86.0857 41.944C85.451 42.168 84.779 42.28 84.0697 42.28ZM84.8257 39.62C85.703 39.62 86.4777 39.4053 87.1497 38.976C87.8217 38.5467 88.3443 37.9587 88.7177 37.212C89.1097 36.4467 89.3057 35.5787 89.3057 34.608C89.3057 33.656 89.1097 32.8067 88.7177 32.06C88.3443 31.3133 87.8217 30.7253 87.1497 30.296C86.4777 29.8667 85.703 29.652 84.8257 29.652C83.967 29.652 83.2017 29.8667 82.5297 30.296C81.8763 30.7253 81.3537 31.3133 80.9617 32.06C80.5883 32.8067 80.4017 33.656 80.4017 34.608C80.4017 35.5787 80.5883 36.4467 80.9617 37.212C81.3537 37.9587 81.8763 38.5467 82.5297 38.976C83.2017 39.4053 83.967 39.62 84.8257 39.62ZM99.891 42.28C98.8456 42.28 97.931 42.0373 97.147 41.552C96.3816 41.0667 95.7843 40.3853 95.355 39.508C94.9443 38.6307 94.739 37.5853 94.739 36.372V27.3H97.623V35.588C97.623 36.4467 97.7536 37.1933 98.015 37.828C98.295 38.444 98.687 38.92 99.191 39.256C99.7136 39.592 100.339 39.76 101.067 39.76C101.608 39.76 102.103 39.676 102.551 39.508C102.999 39.3213 103.382 39.0693 103.699 38.752C104.035 38.4347 104.296 38.052 104.483 37.604C104.67 37.156 104.763 36.6707 104.763 36.148V27.3H107.647V42H104.763V38.92L105.267 38.584C105.043 39.2747 104.66 39.9 104.119 40.46C103.596 41.02 102.971 41.468 102.243 41.804C101.515 42.1213 100.731 42.28 99.891 42.28ZM110.628 42V21.28H113.512V42H110.628ZM118.217 42V23.548H121.101V42H118.217ZM115.165 30.1V27.3H124.517V30.1H115.165ZM133.871 42L141.991 24.304L142.327 25.2H132.415V22.4H144.539L144.931 24.332L137.119 42H133.871ZM152.168 42C151.197 42 150.292 41.832 149.452 41.496C148.631 41.1413 147.912 40.656 147.296 40.04C146.699 39.424 146.223 38.696 145.868 37.856C145.532 37.016 145.364 36.092 145.364 35.084C145.364 34.58 145.429 34.02 145.56 33.404C145.709 32.7693 145.924 32.0787 146.204 31.332C146.503 30.5853 146.857 29.8013 147.268 28.98C147.679 28.14 148.155 27.272 148.696 26.376L151.244 22.064H154.184L154.296 22.344L151.216 27.524C150.656 28.476 150.152 29.3813 149.704 30.24C149.275 31.0987 148.911 31.9107 148.612 32.676C148.313 33.4227 148.089 34.104 147.94 34.72L147.268 31.836C147.623 31.2573 148.005 30.7533 148.416 30.324C148.827 29.876 149.265 29.5027 149.732 29.204C150.217 28.9053 150.721 28.6813 151.244 28.532C151.767 28.3827 152.308 28.308 152.868 28.308C153.951 28.308 154.94 28.6067 155.836 29.204C156.751 29.7827 157.479 30.5573 158.02 31.528C158.58 32.4987 158.86 33.5627 158.86 34.72C158.86 36.12 158.571 37.3707 157.992 38.472C157.432 39.5547 156.648 40.4133 155.64 41.048C154.632 41.6827 153.475 42 152.168 42ZM152.168 39.2C152.896 39.2 153.54 39.032 154.1 38.696C154.679 38.3413 155.127 37.856 155.444 37.24C155.78 36.6053 155.948 35.8867 155.948 35.084C155.948 34.3933 155.78 33.7493 155.444 33.152C155.108 32.536 154.66 32.0413 154.1 31.668C153.54 31.2947 152.915 31.108 152.224 31.108C151.459 31.108 150.777 31.2853 150.18 31.64C149.583 31.9947 149.116 32.4707 148.78 33.068C148.444 33.6653 148.276 34.328 148.276 35.056C148.276 35.84 148.444 36.5493 148.78 37.184C149.116 37.8 149.573 38.2947 150.152 38.668C150.731 39.0227 151.403 39.2 152.168 39.2Z" fill="#FFD218"/>
</svg>
