<svg width="142" height="34" viewBox="0 0 142 34" fill="none" xmlns="http://www.w3.org/2000/svg">
<path fill-rule="evenodd" clip-rule="evenodd" d="M26.1716 5.03663C18.991 5.31845 14.8493 2.68815 13.676 1.33777L13.676 32.3378L21.4198 25.6446C26.9108 21.1355 26.8756 10.0272 26.1716 5.03663ZM0.828399 5.03663C8.00896 5.31845 12.1507 2.68815 13.324 1.33777L13.324 32.3378L5.58024 25.6446C0.0892214 21.1355 0.124422 10.0272 0.828399 5.03663Z" fill="#6B6F73" stroke="#6B6F73"/>
<path d="M37.964 8.55777H44.348L45.3 20.5978L51.124 8.55777H53.896L45.608 26.3378H39L37.964 8.55777ZM65.564 26.3378H59.012L58.62 21.8858H53.44L51.452 26.3378H48.736L56.996 8.55777H63.632L65.564 26.3378ZM54.364 19.8418H58.424L57.78 12.2258L54.364 19.8418ZM72.8415 19.9818C72.7482 20.3924 72.6735 20.7471 72.6175 21.0458C72.5615 21.3444 72.5335 21.6244 72.5335 21.8858C72.5335 22.5391 72.7575 23.0618 73.2055 23.4538C73.6722 23.8458 74.3535 24.0418 75.2495 24.0418C75.9029 24.0418 76.4349 23.9298 76.8455 23.7058C77.2749 23.4818 77.6202 23.1831 77.8815 22.8098C78.1615 22.4364 78.3762 22.0071 78.5255 21.5218C78.6935 21.0364 78.8335 20.5231 78.9455 19.9818L81.3255 8.55777H83.8735L81.4375 20.0378C81.2509 20.9338 80.9802 21.7738 80.6255 22.5578C80.2709 23.3418 79.7575 24.0324 79.0855 24.6298C78.4322 25.2271 77.5829 25.7031 76.5375 26.0578C75.4922 26.3938 74.1949 26.5618 72.6455 26.5618C70.4989 26.5618 68.9122 26.2164 67.8855 25.5258C66.8589 24.8164 66.3455 23.7338 66.3455 22.2778C66.3455 21.6244 66.4295 20.7938 66.5975 19.7858C66.7655 18.7778 66.9802 17.6858 67.2415 16.5098L68.9495 8.55777H75.3055L72.8415 19.9818ZM85.6623 8.55777H91.7383L88.4343 23.9858H94.1183L93.6423 26.3378H81.8823L85.6623 8.55777ZM109.408 10.6858H104.9L101.568 26.3378H95.52L98.852 10.6858H94.4L94.904 8.55777H109.884L109.408 10.6858ZM126.507 11.2738C125.238 11.8711 124.136 12.7018 123.203 13.7658C122.27 14.8111 121.504 16.0058 120.907 17.3498C120.31 18.6938 119.862 20.1404 119.563 21.6898C119.283 23.2204 119.143 24.7698 119.143 26.3378H113.095C113.095 25.8711 113.151 25.2924 113.263 24.6018C113.375 23.8924 113.552 23.1178 113.795 22.2778C114.038 21.4378 114.355 20.5604 114.747 19.6458C115.139 18.7311 115.615 17.8351 116.175 16.9578C116.735 16.0804 117.388 15.2498 118.135 14.4658C118.882 13.6818 119.731 13.0004 120.683 12.4218H112.171L113.011 8.55777H127.123L126.507 11.2738ZM135.698 8.27777C136.053 8.27777 136.454 8.29643 136.902 8.33377C137.369 8.3711 137.835 8.43643 138.302 8.52977C138.787 8.60443 139.254 8.71643 139.702 8.86577C140.169 8.99643 140.579 9.17377 140.934 9.39777L140.038 13.3178H135.698C135.717 13.1124 135.735 12.9164 135.754 12.7298C135.773 12.5431 135.782 12.3471 135.782 12.1418C135.782 11.6564 135.726 11.2178 135.614 10.8258C135.502 10.4151 135.287 10.2098 134.97 10.2098C134.746 10.2098 134.485 10.3311 134.186 10.5738C133.887 10.8164 133.579 11.1991 133.262 11.7218C132.945 12.2444 132.646 12.9164 132.366 13.7378C132.086 14.5591 131.853 15.5391 131.666 16.6778H131.946C132.487 16.0804 133.15 15.6231 133.934 15.3058C134.737 14.9884 135.558 14.8298 136.398 14.8298C137.835 14.8298 138.862 15.2684 139.478 16.1458C140.094 17.0044 140.402 18.1804 140.402 19.6738C140.402 20.8124 140.225 21.8018 139.87 22.6418C139.515 23.4631 138.946 24.1818 138.162 24.7978C137.49 25.3204 136.641 25.7498 135.614 26.0858C134.606 26.4031 133.411 26.5618 132.03 26.5618C131.041 26.5618 130.126 26.4591 129.286 26.2538C128.465 26.0298 127.746 25.6564 127.13 25.1338C126.533 24.5924 126.066 23.8738 125.73 22.9778C125.394 22.0631 125.226 20.9151 125.226 19.5338C125.226 18.0591 125.431 16.6404 125.842 15.2778C126.271 13.9151 126.915 12.7204 127.774 11.6938C128.633 10.6484 129.715 9.81777 131.022 9.20177C132.347 8.58577 133.906 8.27777 135.698 8.27777ZM131.89 24.6578C132.338 24.6578 132.73 24.4524 133.066 24.0418C133.402 23.6311 133.673 23.1271 133.878 22.5298C134.083 21.9324 134.233 21.2978 134.326 20.6258C134.438 19.9351 134.494 19.3191 134.494 18.7778C134.494 18.3298 134.438 17.9844 134.326 17.7418C134.233 17.4991 133.999 17.3778 133.626 17.3778C133.122 17.3778 132.693 17.5924 132.338 18.0218C131.983 18.4324 131.685 18.9364 131.442 19.5338C131.218 20.1124 131.05 20.7191 130.938 21.3538C130.845 21.9884 130.798 22.5204 130.798 22.9498C130.798 23.4724 130.882 23.8924 131.05 24.2098C131.218 24.5084 131.498 24.6578 131.89 24.6578Z" fill="#6B6F73"/>
</svg>
