<svg width="75" height="91" viewBox="0 0 75 91" fill="none" xmlns="http://www.w3.org/2000/svg">
<path fill-rule="evenodd" clip-rule="evenodd" d="M73.4332 11.8369C53.0332 12.6369 41.2666 5.17025 37.9332 1.33691L37.9331 89.3369L59.9332 70.3369C75.5332 57.5369 75.4332 26.0036 73.4332 11.8369ZM1.43311 11.8369C21.8331 12.6369 33.5998 5.17025 36.9331 1.33691L36.9332 89.3369L14.9331 70.3369C-0.666901 57.5369 -0.566895 26.0036 1.43311 11.8369Z" fill="#CAC6B9" stroke="#CAC6B9"/>
<path d="M11.6293 31.0132V24.0039H37.4374V29.4824C35.3069 31.5771 33.1405 34.585 30.9384 38.5059C28.7362 42.4268 27.0533 46.5983 25.8896 51.0205C24.7437 55.4248 24.1798 59.3636 24.1977 62.8369H16.9198C17.0452 57.3942 18.1641 51.8441 20.2768 46.1865C22.4073 40.529 25.245 35.4712 28.7899 31.0132H11.6293ZM62.8609 33.1079L55.5562 33.9136C55.3772 32.4097 54.9117 31.2996 54.1598 30.5835C53.4078 29.8674 52.4321 29.5093 51.2325 29.5093C49.6391 29.5093 48.2874 30.2254 47.1773 31.6577C46.0852 33.09 45.3959 36.071 45.1095 40.6006C46.9894 38.3805 49.3258 37.2705 52.1187 37.2705C55.2698 37.2705 57.9643 38.4701 60.2022 40.8691C62.4581 43.2682 63.586 46.3656 63.586 50.1611C63.586 54.1895 62.4044 57.4211 60.0411 59.856C57.6778 62.2909 54.6432 63.5083 50.9371 63.5083C46.9625 63.5083 43.6951 61.9686 41.1349 58.8892C38.5746 55.7918 37.2945 50.7251 37.2945 43.689C37.2945 36.4738 38.6284 31.2728 41.296 28.0859C43.9636 24.8991 47.428 23.3057 51.6891 23.3057C54.679 23.3057 57.1497 24.1471 59.1012 25.8301C61.0706 27.4951 62.3238 29.9211 62.8609 33.1079ZM45.754 49.5703C45.754 52.0231 46.318 53.9209 47.4459 55.2637C48.5738 56.5885 49.8629 57.251 51.3131 57.251C52.7096 57.251 53.8733 56.7049 54.8043 55.6128C55.7353 54.5207 56.2008 52.7303 56.2008 50.2417C56.2008 47.6815 55.6995 45.8105 54.6969 44.6289C53.6943 43.4294 52.441 42.8296 50.9371 42.8296C49.4869 42.8296 48.2605 43.4025 47.2579 44.5483C46.2553 45.6763 45.754 47.3503 45.754 49.5703Z" fill="#1F1F22"/>
</svg>
