<svg width="164" height="45" viewBox="0 0 164 45" fill="none" xmlns="http://www.w3.org/2000/svg">
<path fill-rule="evenodd" clip-rule="evenodd" d="M35.0579 6.3556C25.3918 6.73742 19.8164 3.17378 18.2369 1.34424L18.2369 43.3442L28.6612 34.2761C36.053 28.167 36.0056 13.117 35.0579 6.3556ZM0.942074 6.3556C10.6082 6.73742 16.1836 3.17378 17.7631 1.34424L17.7631 43.3442L7.33879 34.2761C-0.0529709 28.167 -0.00558472 13.117 0.942074 6.3556Z" fill="white" stroke="white"/>
<path d="M57.708 34.3442L48.748 11.9442H52.684L58.028 25.5442C58.284 26.2056 58.508 26.8029 58.7 27.3362C58.9133 27.8696 59.0947 28.3602 59.244 28.8082C59.3933 29.2349 59.532 29.6402 59.66 30.0242C59.788 30.4082 59.916 30.7922 60.044 31.1762L59.212 31.2082C59.3613 30.6962 59.5213 30.1629 59.692 29.6082C59.8627 29.0536 60.0547 28.4456 60.268 27.7842C60.5027 27.1229 60.78 26.3762 61.1 25.5442L66.06 11.9442H70.092L61.068 34.3442H57.708ZM76.4367 34.6642C75.0501 34.6642 73.7807 34.2802 72.6287 33.5122C71.4981 32.7442 70.5914 31.6989 69.9087 30.3762C69.2261 29.0536 68.8847 27.5602 68.8847 25.8962C68.8847 24.2109 69.2261 22.7176 69.9087 21.4162C70.6127 20.0936 71.5514 19.0589 72.7247 18.3122C73.9194 17.5656 75.2527 17.1922 76.7247 17.1922C77.5994 17.1922 78.3994 17.3202 79.1247 17.5762C79.8501 17.8322 80.4794 18.1949 81.0127 18.6642C81.5674 19.1122 82.0154 19.6349 82.3567 20.2322C82.7194 20.8296 82.9434 21.4696 83.0287 22.1522L82.2927 21.8962V17.5442H85.6208V34.3442H82.2927V30.3442L83.0608 30.1202C82.9327 30.6962 82.6661 31.2616 82.2607 31.8162C81.8767 32.3496 81.3754 32.8296 80.7567 33.2562C80.1594 33.6829 79.4874 34.0242 78.7407 34.2802C78.0154 34.5362 77.2474 34.6642 76.4367 34.6642ZM77.3007 31.6242C78.3034 31.6242 79.1887 31.3789 79.9567 30.8882C80.7247 30.3976 81.3221 29.7256 81.7487 28.8722C82.1967 27.9976 82.4207 27.0056 82.4207 25.8962C82.4207 24.8082 82.1967 23.8376 81.7487 22.9842C81.3221 22.1309 80.7247 21.4589 79.9567 20.9682C79.1887 20.4776 78.3034 20.2322 77.3007 20.2322C76.3194 20.2322 75.4447 20.4776 74.6767 20.9682C73.9301 21.4589 73.3327 22.1309 72.8847 22.9842C72.4581 23.8376 72.2447 24.8082 72.2447 25.8962C72.2447 27.0056 72.4581 27.9976 72.8847 28.8722C73.3327 29.7256 73.9301 30.3976 74.6767 30.8882C75.4447 31.3789 76.3194 31.6242 77.3007 31.6242ZM94.5182 34.6642C93.3236 34.6642 92.2782 34.3869 91.3822 33.8322C90.5076 33.2776 89.8249 32.4989 89.3342 31.4962C88.8649 30.4936 88.6302 29.2989 88.6302 27.9122V17.5442H91.9262V27.0162C91.9262 27.9976 92.0756 28.8509 92.3742 29.5762C92.6942 30.2802 93.1422 30.8242 93.7182 31.2082C94.3156 31.5922 95.0302 31.7842 95.8622 31.7842C96.4809 31.7842 97.0462 31.6882 97.5582 31.4962C98.0702 31.2829 98.5076 30.9949 98.8702 30.6322C99.2542 30.2696 99.5529 29.8322 99.7662 29.3202C99.9796 28.8082 100.086 28.2536 100.086 27.6562V17.5442H103.382V34.3442H100.086V30.8242L100.662 30.4402C100.406 31.2296 99.9689 31.9442 99.3502 32.5842C98.7529 33.2242 98.0382 33.7362 97.2062 34.1202C96.3742 34.4829 95.4782 34.6642 94.5182 34.6642ZM106.789 34.3442V10.6642H110.085V34.3442H106.789ZM115.463 34.3442V13.2562H118.759V34.3442H115.463ZM111.975 20.7442V17.5442H122.663V20.7442H111.975ZM133.353 34.3442L142.633 14.1202L143.017 15.1442H131.689V11.9442H145.545L145.993 14.1522L137.065 34.3442H133.353ZM154.264 34.3442C153.154 34.3442 152.12 34.1522 151.16 33.7682C150.221 33.3629 149.4 32.8082 148.696 32.1042C148.013 31.4002 147.469 30.5682 147.064 29.6082C146.68 28.6482 146.488 27.5922 146.488 26.4402C146.488 25.8642 146.562 25.2242 146.712 24.5202C146.882 23.7949 147.128 23.0056 147.448 22.1522C147.789 21.2989 148.194 20.4029 148.664 19.4642C149.133 18.5042 149.677 17.5122 150.296 16.4882L153.208 11.5602H156.568L156.696 11.8802L153.176 17.8002C152.536 18.8882 151.96 19.9229 151.448 20.9042C150.957 21.8856 150.541 22.8136 150.2 23.6882C149.858 24.5416 149.602 25.3202 149.432 26.0242L148.664 22.7282C149.069 22.0669 149.506 21.4909 149.976 21.0002C150.445 20.4882 150.946 20.0616 151.48 19.7202C152.034 19.3789 152.61 19.1229 153.208 18.9522C153.805 18.7816 154.424 18.6962 155.064 18.6962C156.301 18.6962 157.432 19.0376 158.456 19.7202C159.501 20.3816 160.333 21.2669 160.952 22.3762C161.592 23.4856 161.912 24.7016 161.912 26.0242C161.912 27.6242 161.581 29.0536 160.92 30.3122C160.28 31.5496 159.384 32.5309 158.232 33.2562C157.08 33.9816 155.757 34.3442 154.264 34.3442ZM154.264 31.1442C155.096 31.1442 155.832 30.9522 156.472 30.5682C157.133 30.1629 157.645 29.6082 158.008 28.9042C158.392 28.1789 158.584 27.3576 158.584 26.4402C158.584 25.6509 158.392 24.9149 158.008 24.2322C157.624 23.5282 157.112 22.9629 156.472 22.5362C155.832 22.1096 155.117 21.8962 154.328 21.8962C153.453 21.8962 152.674 22.0989 151.992 22.5042C151.309 22.9096 150.776 23.4536 150.392 24.1362C150.008 24.8189 149.816 25.5762 149.816 26.4082C149.816 27.3042 150.008 28.1149 150.392 28.8402C150.776 29.5442 151.298 30.1096 151.96 30.5362C152.621 30.9416 153.389 31.1442 154.264 31.1442Z" fill="white"/>
</svg>
