<svg width="278" height="278" viewBox="0 0 278 278" fill="none" xmlns="http://www.w3.org/2000/svg">
<circle cx="139" cy="139" r="139" fill="#E2E2E2"/>
<path d="M129.958 141.201L132.614 140.879C132.699 141.556 132.927 142.074 133.298 142.432C133.669 142.79 134.118 142.969 134.646 142.969C135.212 142.969 135.687 142.754 136.071 142.324C136.462 141.895 136.657 141.315 136.657 140.586C136.657 139.896 136.472 139.349 136.101 138.945C135.73 138.542 135.277 138.34 134.743 138.34C134.392 138.34 133.972 138.408 133.483 138.545L133.786 136.309C134.528 136.328 135.095 136.169 135.485 135.83C135.876 135.485 136.071 135.029 136.071 134.463C136.071 133.981 135.928 133.597 135.642 133.311C135.355 133.024 134.974 132.881 134.499 132.881C134.03 132.881 133.63 133.044 133.298 133.369C132.966 133.695 132.764 134.17 132.692 134.795L130.163 134.365C130.339 133.499 130.603 132.809 130.954 132.295C131.312 131.774 131.807 131.367 132.439 131.074C133.077 130.775 133.789 130.625 134.577 130.625C135.925 130.625 137.006 131.055 137.819 131.914C138.49 132.617 138.825 133.411 138.825 134.297C138.825 135.553 138.138 136.556 136.765 137.305C137.585 137.48 138.239 137.874 138.728 138.486C139.222 139.098 139.47 139.837 139.47 140.703C139.47 141.96 139.011 143.031 138.093 143.916C137.175 144.801 136.032 145.244 134.665 145.244C133.37 145.244 132.295 144.873 131.442 144.131C130.59 143.382 130.095 142.406 129.958 141.201ZM144.227 130.625C145.614 130.625 146.698 131.12 147.479 132.109C148.41 133.281 148.876 135.225 148.876 137.939C148.876 140.648 148.407 142.594 147.469 143.779C146.695 144.756 145.614 145.244 144.227 145.244C142.834 145.244 141.711 144.71 140.858 143.643C140.005 142.568 139.579 140.658 139.579 137.91C139.579 135.215 140.048 133.275 140.985 132.09C141.76 131.113 142.841 130.625 144.227 130.625ZM144.227 132.9C143.895 132.9 143.599 133.008 143.339 133.223C143.078 133.431 142.876 133.809 142.733 134.355C142.544 135.065 142.45 136.26 142.45 137.939C142.45 139.619 142.535 140.775 142.704 141.406C142.873 142.031 143.085 142.448 143.339 142.656C143.599 142.865 143.895 142.969 144.227 142.969C144.559 142.969 144.855 142.865 145.116 142.656C145.376 142.441 145.578 142.061 145.721 141.514C145.91 140.811 146.005 139.619 146.005 137.939C146.005 136.26 145.92 135.107 145.751 134.482C145.581 133.851 145.367 133.431 145.106 133.223C144.852 133.008 144.559 132.9 144.227 132.9Z" fill="#868686"/>
<path d="M125.835 9C129.441 28.4727 133.769 64.5331 133.769 104.2" stroke="#747474" stroke-width="3"/>
<path d="M153.963 9C150.357 28.4727 146.03 64.5331 146.03 104.2" stroke="#747474" stroke-width="3"/>
<path d="M140.26 13.3271V40.7331" stroke="#747474" stroke-width="5"/>
<path d="M140.26 42.1755V69.5815" stroke="#747474" stroke-width="4"/>
<path d="M140.26 73.9089V101.315" stroke="#747474" stroke-width="3"/>
<path d="M114.296 12.606C121.508 29.915 127.713 75.1657 125.477 107.806M114.296 12.606C121.508 29.915 127.713 75.1657 125.477 107.806" stroke="#747474" stroke-width="4"/>
<path d="M166 9C157.948 27.1818 151.021 74.7143 153.517 109M166 9C157.948 27.1818 151.021 74.7143 153.517 109" stroke="#747474" stroke-width="4"/>
<path d="M9 124.394C28.4727 128 64.5331 132.327 104.2 132.327" stroke="#747474" stroke-width="3"/>
<path d="M9 152.521C28.4727 148.915 64.5331 144.587 104.2 144.587" stroke="#747474" stroke-width="3"/>
<path d="M13.3271 138.818L40.7331 138.818" stroke="#747474" stroke-width="5"/>
<path d="M42.1758 138.818L69.5817 138.818" stroke="#747474" stroke-width="4"/>
<path d="M73.9087 138.818L101.315 138.818" stroke="#747474" stroke-width="3"/>
<path d="M13 113C30.4545 120.433 76.0857 126.827 109 124.523M13 113C30.4545 120.433 76.0857 126.827 109 124.523" stroke="#747474" stroke-width="4"/>
<path d="M12 165C29.6364 157.567 75.7429 151.173 109 153.477M12 165C29.6364 157.567 75.7429 151.173 109 153.477" stroke="#747474" stroke-width="3"/>
<circle cx="138.818" cy="138.818" r="131.375" stroke="#747474" stroke-width="6"/>
<circle cx="31.7332" cy="31.7332" r="33.2332" transform="matrix(1 0 0 -1 107.084 170.551)" stroke="#747474" stroke-width="3"/>
<path d="M177.049 138.104L204.455 138.104" stroke="#747474" stroke-width="5"/>
<path d="M205.897 138.104L233.303 138.104" stroke="#747474" stroke-width="4"/>
<path d="M237.63 138.104L265.036 138.104" stroke="#747474" stroke-width="3"/>
<path d="M167 122L270 128" stroke="#747474" stroke-width="4"/>
<path d="M268.635 147.472L168.387 153.242" stroke="#747474" stroke-width="4"/>
<path d="M268.711 143.736L171.882 145.584" stroke="#747474" stroke-width="2"/>
<path d="M171.883 129.753L268.711 131.601" stroke="#747474" stroke-width="2"/>
<path d="M139.531 177.77L139.531 205.176" stroke="#747474" stroke-width="5"/>
<path d="M139.531 206.618L139.531 234.024" stroke="#747474" stroke-width="4"/>
<path d="M139.531 238.352L139.531 265.758" stroke="#747474" stroke-width="3"/>
<path d="M155 168L150 268" stroke="#747474" stroke-width="4"/>
<path d="M130.163 269.356L124.393 169.108" stroke="#747474" stroke-width="4"/>
<path d="M133.899 269.432L132.052 172.604" stroke="#747474" stroke-width="2"/>
<path d="M147.882 172.604L146.034 269.432" stroke="#747474" stroke-width="2"/>
<circle cx="24.5211" cy="24.5211" r="26.0211" transform="matrix(1 0 0 -1 114.296 163.339)" stroke="#747474" stroke-width="3"/>
<circle cx="18.7514" cy="18.7514" r="20.2514" transform="matrix(1 0 0 -1 120.066 157.569)" stroke="#747474" stroke-width="3"/>
<path d="M109 79C101.432 82.4211 87.1081 90.0526 79 109" stroke="#747474" stroke-width="4" stroke-linecap="round"/>
<path d="M94 51C82.9009 56.0175 61.8919 67.2105 50 95" stroke="#747474" stroke-width="4" stroke-linecap="round"/>
<path d="M171 77C178.568 80.4211 192.892 88.0526 201 107" stroke="#747474" stroke-width="4" stroke-linecap="round"/>
<path d="M185 49C196.099 54.0175 217.108 65.2105 229 93" stroke="#747474" stroke-width="4" stroke-linecap="round"/>
<path d="M112 202C104.432 198.465 90.1081 190.579 82 171" stroke="#747474" stroke-width="4" stroke-linecap="round"/>
<path d="M97 230C85.9009 224.982 64.8919 213.789 53 186" stroke="#747474" stroke-width="4" stroke-linecap="round"/>
<path d="M171 200C178.568 196.465 192.892 188.579 201 169" stroke="#747474" stroke-width="4" stroke-linecap="round"/>
<path d="M185 228C196.099 222.982 217.108 211.789 229 184" stroke="#747474" stroke-width="4" stroke-linecap="round"/>
<rect x="53" y="70.5176" width="31" height="26" transform="rotate(-43.957 53 70.5176)" fill="#E2E2E2"/>
<path d="M71.7018 69.2036L72.8777 70.4166L66.083 77.0029C65.7792 76.7081 65.545 76.3684 65.3807 75.9837C65.105 75.3533 64.939 74.6301 64.8827 73.8143C64.831 72.994 64.8796 71.9404 65.0286 70.6536C65.2577 68.6543 65.3103 67.198 65.1864 66.2844C65.0579 65.3662 64.7626 64.6687 64.3004 64.1919C63.8156 63.6917 63.2278 63.4454 62.537 63.4531C61.8464 63.4515 61.2136 63.7294 60.6387 64.2868C60.031 64.8759 59.7215 65.5294 59.7103 66.2475C59.6992 66.9656 60.0039 67.6494 60.6245 68.2991L59.1982 69.4233C58.349 68.3695 57.9696 67.3093 58.0598 66.2425C58.1456 65.1711 58.677 64.1619 59.654 63.2148C60.6403 62.2587 61.6861 61.7754 62.7912 61.765C63.8964 61.7546 64.8409 62.1537 65.6248 62.9625C66.0236 63.3738 66.3314 63.8597 66.5483 64.4202C66.7651 64.9807 66.8902 65.671 66.9235 66.491C66.9614 67.3065 66.8985 68.5372 66.7348 70.1829C66.5938 71.5527 66.5268 72.4564 66.5338 72.8939C66.5362 73.3267 66.5784 73.7256 66.6602 74.0906L71.7018 69.2036ZM68.1749 65.142C66.9968 63.9266 66.1736 62.8295 65.7054 61.8507C65.2373 60.8627 65.0539 59.9299 65.155 59.052C65.2608 58.1697 65.6877 57.366 66.4357 56.641C66.9873 56.1063 67.5799 55.7495 68.2134 55.5706C68.8424 55.387 69.4964 55.3742 70.1754 55.5321C70.8498 55.6853 71.5564 55.9887 72.2952 56.4422C73.0295 56.891 73.8905 57.6249 74.8784 58.644C76.0475 59.8501 76.8684 60.9448 77.3411 61.9283C77.8093 62.907 77.9927 63.8399 77.8915 64.7269C77.7903 65.6047 77.3634 66.4084 76.6108 67.138C75.6198 68.0986 74.4971 68.4978 73.2427 68.3355C71.7356 68.1371 70.0463 67.0726 68.1749 65.142ZM69.4721 63.8845C71.1079 65.5721 72.3941 66.506 73.3305 66.6863C74.2671 66.8575 75.0252 66.6621 75.6048 66.1002C76.1845 65.5383 76.3988 64.7866 76.2477 63.845C76.1013 62.8989 75.2124 61.5843 73.5812 59.9015C71.9408 58.2092 70.6523 57.2776 69.7158 57.1064C68.7839 56.9308 68.0234 57.1284 67.4344 57.6994C66.8547 58.2613 66.6299 58.9553 66.7597 59.7815C66.9322 60.8293 67.8363 62.197 69.4721 63.8845Z" fill="#868686"/>
<rect x="72.4453" y="87.124" width="25.6991" height="26" transform="rotate(-43.957 72.4453 87.124)" fill="#E2E2E2"/>
<path d="M95.7018 93.2036L96.8777 94.4166L90.083 101.003C89.7792 100.708 89.545 100.368 89.3807 99.9837C89.105 99.3533 88.939 98.6301 88.8827 97.8143C88.831 96.994 88.8796 95.9404 89.0286 94.6536C89.2577 92.6543 89.3103 91.198 89.1864 90.2844C89.0579 89.3662 88.7626 88.6687 88.3004 88.1919C87.8156 87.6917 87.2278 87.4454 86.537 87.4531C85.8464 87.4515 85.2136 87.7294 84.6387 88.2868C84.031 88.8759 83.7215 89.5294 83.7103 90.2475C83.6992 90.9656 84.0039 91.6494 84.6245 92.2991L83.1982 93.4233C82.349 92.3695 81.9696 91.3093 82.0598 90.2425C82.1456 89.1711 82.677 88.1619 83.654 87.2148C84.6403 86.2587 85.6861 85.7754 86.7912 85.765C87.8964 85.7546 88.8409 86.1537 89.6248 86.9625C90.0236 87.3738 90.3314 87.8597 90.5483 88.4202C90.7651 88.9807 90.8902 89.671 90.9235 90.491C90.9614 91.3065 90.8985 92.5372 90.7348 94.1829C90.5938 95.5527 90.5268 96.4564 90.5338 96.8939C90.5362 97.3267 90.5784 97.7256 90.6602 98.0906L95.7018 93.2036ZM94.4791 91.519L95.6956 90.1222C96.4191 90.6722 97.1171 90.9385 97.7895 90.9214C98.4622 90.895 99.0509 90.6372 99.5558 90.1478C100.163 89.5587 100.456 88.8312 100.432 87.9653C100.409 87.0993 100.03 86.2877 99.2961 85.5304C98.5983 84.8105 97.8444 84.4396 97.0344 84.4178C96.2291 84.3915 95.4992 84.6955 94.8448 85.3299C94.4381 85.7241 94.1618 86.1733 94.0158 86.6775C93.8653 87.177 93.8393 87.6646 93.9378 88.1404L92.6032 89.1348L88.4808 82.8896L93.5925 77.9346L94.7616 79.1407L90.6596 83.1169L92.7836 86.4166C92.9838 85.3884 93.4228 84.5458 94.1006 83.8887C94.9982 83.0187 96.0568 82.5955 97.2765 82.6191C98.4963 82.6427 99.5796 83.143 100.527 84.12C101.428 85.0502 101.937 86.1171 102.051 87.3206C102.199 88.7916 101.702 90.0799 100.562 91.1855C99.6268 92.0918 98.6087 92.5709 97.5075 92.6228C96.411 92.6702 95.4015 92.3023 94.4791 91.519Z" fill="#868686"/>
<rect x="226.992" y="206.323" width="31" height="26" transform="rotate(136.043 226.992 206.323)" fill="#E2E2E2"/>
<path d="M215.371 202.714L214.272 204.106C213.434 203.531 212.688 203.253 212.034 203.27C211.38 203.297 210.802 203.552 210.302 204.037C209.709 204.613 209.408 205.303 209.4 206.109C209.387 206.919 209.675 207.628 210.265 208.236C210.826 208.815 211.478 209.109 212.219 209.115C212.965 209.127 213.63 208.85 214.214 208.283C214.453 208.052 214.704 207.718 214.969 207.28L215.902 208.524C215.809 208.596 215.737 208.657 215.685 208.707C215.148 209.228 214.8 209.837 214.642 210.534C214.484 211.232 214.688 211.873 215.254 212.457C215.703 212.92 216.231 213.151 216.839 213.152C217.446 213.152 217.998 212.912 218.494 212.431C218.984 211.956 219.244 211.405 219.272 210.779C219.3 210.153 219.062 209.487 218.557 208.779L220.037 207.78C220.703 208.776 220.987 209.77 220.888 210.763C220.795 211.761 220.341 212.654 219.528 213.442C218.967 213.986 218.332 214.365 217.624 214.58C216.921 214.799 216.244 214.82 215.593 214.645C214.937 214.473 214.383 214.154 213.93 213.686C213.499 213.242 213.227 212.722 213.111 212.127C212.996 211.531 213.068 210.899 213.327 210.231C212.584 210.68 211.828 210.845 211.061 210.727C210.299 210.614 209.596 210.226 208.952 209.562C208.082 208.664 207.671 207.585 207.718 206.324C207.77 205.068 208.296 203.955 209.297 202.986C210.199 202.111 211.21 201.653 212.329 201.61C213.444 201.572 214.458 201.94 215.371 202.714ZM210.817 211.698C211.995 212.914 212.819 214.011 213.287 214.99C213.755 215.978 213.938 216.91 213.837 217.788C213.731 218.671 213.304 219.474 212.557 220.199C212.005 220.734 211.412 221.091 210.779 221.27C210.15 221.453 209.496 221.466 208.817 221.308C208.142 221.155 207.436 220.852 206.697 220.398C205.963 219.949 205.102 219.215 204.114 218.196C202.945 216.99 202.124 215.895 201.651 214.912C201.183 213.933 200.999 213 201.101 212.113C201.202 211.236 201.629 210.432 202.381 209.702C203.372 208.742 204.495 208.343 205.75 208.505C207.257 208.703 208.946 209.768 210.817 211.698ZM209.52 212.956C207.884 211.268 206.598 210.334 205.662 210.154C204.725 209.983 203.967 210.178 203.387 210.74C202.808 211.302 202.593 212.054 202.744 212.995C202.891 213.941 203.78 215.256 205.411 216.939C207.051 218.631 208.34 219.563 209.276 219.734C210.208 219.91 210.969 219.712 211.558 219.141C212.137 218.579 212.362 217.885 212.232 217.059C212.06 216.011 211.156 214.643 209.52 212.956Z" fill="#868686"/>
<rect x="207.547" y="189.716" width="25.6991" height="26" transform="rotate(136.043 207.547 189.716)" fill="#E2E2E2"/>
<path d="M192.371 178.714L191.272 180.106C190.434 179.531 189.688 179.253 189.034 179.27C188.38 179.297 187.802 179.552 187.302 180.037C186.709 180.613 186.408 181.303 186.4 182.109C186.387 182.919 186.675 183.628 187.265 184.236C187.826 184.815 188.478 185.109 189.219 185.115C189.965 185.127 190.63 184.85 191.214 184.283C191.453 184.052 191.704 183.718 191.969 183.28L192.902 184.524C192.809 184.596 192.737 184.657 192.685 184.707C192.148 185.228 191.8 185.837 191.642 186.534C191.484 187.232 191.688 187.873 192.254 188.457C192.703 188.92 193.231 189.151 193.839 189.152C194.446 189.152 194.998 188.912 195.494 188.431C195.984 187.956 196.244 187.405 196.272 186.779C196.3 186.153 196.062 185.487 195.557 184.779L197.037 183.78C197.703 184.776 197.987 185.77 197.888 186.763C197.795 187.761 197.341 188.654 196.528 189.442C195.967 189.986 195.332 190.365 194.624 190.58C193.921 190.799 193.244 190.82 192.593 190.645C191.937 190.473 191.383 190.154 190.93 189.686C190.499 189.242 190.227 188.722 190.111 188.127C189.996 187.531 190.068 186.899 190.327 186.231C189.584 186.68 188.828 186.845 188.061 186.727C187.299 186.614 186.596 186.226 185.952 185.562C185.082 184.664 184.671 183.585 184.718 182.324C184.77 181.068 185.296 179.955 186.297 178.986C187.199 178.111 188.21 177.653 189.329 177.61C190.444 177.572 191.458 177.94 192.371 178.714ZM185.513 185.321L184.297 186.718C183.573 186.168 182.875 185.902 182.203 185.919C181.53 185.945 180.941 186.203 180.436 186.693C179.829 187.282 179.537 188.009 179.56 188.875C179.583 189.741 179.962 190.553 180.696 191.31C181.394 192.03 182.148 192.401 182.958 192.423C183.763 192.449 184.493 192.145 185.147 191.51C185.554 191.116 185.83 190.667 185.976 190.163C186.127 189.663 186.153 189.176 186.054 188.7L187.389 187.706L191.511 193.951L186.4 198.906L185.231 197.7L189.333 193.723L187.209 190.424C187.008 191.452 186.569 192.295 185.892 192.952C184.994 193.822 183.935 194.245 182.716 194.221C181.496 194.198 180.413 193.697 179.465 192.72C178.564 191.79 178.056 190.723 177.941 189.52C177.793 188.049 178.29 186.76 179.43 185.655C180.365 184.749 181.383 184.269 182.485 184.218C183.581 184.17 184.591 184.538 185.513 185.321Z" fill="#868686"/>
</svg>
