<svg width="278" height="278" viewBox="0 0 278 278" fill="none" xmlns="http://www.w3.org/2000/svg">
<circle cx="139" cy="139" r="139" fill="#E2E2E2"/>
<path d="M129.958 141.201L132.614 140.879C132.699 141.556 132.927 142.074 133.298 142.432C133.669 142.79 134.118 142.969 134.646 142.969C135.212 142.969 135.687 142.754 136.071 142.324C136.462 141.895 136.657 141.315 136.657 140.586C136.657 139.896 136.472 139.349 136.101 138.945C135.73 138.542 135.277 138.34 134.743 138.34C134.392 138.34 133.972 138.408 133.483 138.545L133.786 136.309C134.528 136.328 135.095 136.169 135.485 135.83C135.876 135.485 136.071 135.029 136.071 134.463C136.071 133.981 135.928 133.597 135.642 133.311C135.355 133.024 134.974 132.881 134.499 132.881C134.03 132.881 133.63 133.044 133.298 133.369C132.966 133.695 132.764 134.17 132.692 134.795L130.163 134.365C130.339 133.499 130.603 132.809 130.954 132.295C131.312 131.774 131.807 131.367 132.439 131.074C133.077 130.775 133.789 130.625 134.577 130.625C135.925 130.625 137.006 131.055 137.819 131.914C138.49 132.617 138.825 133.411 138.825 134.297C138.825 135.553 138.138 136.556 136.765 137.305C137.585 137.48 138.239 137.874 138.728 138.486C139.222 139.098 139.47 139.837 139.47 140.703C139.47 141.96 139.011 143.031 138.093 143.916C137.175 144.801 136.032 145.244 134.665 145.244C133.37 145.244 132.295 144.873 131.442 144.131C130.59 143.382 130.095 142.406 129.958 141.201ZM144.227 130.625C145.614 130.625 146.698 131.12 147.479 132.109C148.41 133.281 148.876 135.225 148.876 137.939C148.876 140.648 148.407 142.594 147.469 143.779C146.695 144.756 145.614 145.244 144.227 145.244C142.834 145.244 141.711 144.71 140.858 143.643C140.005 142.568 139.579 140.658 139.579 137.91C139.579 135.215 140.048 133.275 140.985 132.09C141.76 131.113 142.841 130.625 144.227 130.625ZM144.227 132.9C143.895 132.9 143.599 133.008 143.339 133.223C143.078 133.431 142.876 133.809 142.733 134.355C142.544 135.065 142.45 136.26 142.45 137.939C142.45 139.619 142.535 140.775 142.704 141.406C142.873 142.031 143.085 142.448 143.339 142.656C143.599 142.865 143.895 142.969 144.227 142.969C144.559 142.969 144.855 142.865 145.116 142.656C145.376 142.441 145.578 142.061 145.721 141.514C145.91 140.811 146.005 139.619 146.005 137.939C146.005 136.26 145.92 135.107 145.751 134.482C145.581 133.851 145.367 133.431 145.106 133.223C144.852 133.008 144.559 132.9 144.227 132.9Z" fill="#868686"/>
<path d="M125.835 9C129.441 28.4727 133.769 64.5331 133.769 104.2" stroke="#747474" stroke-width="3"/>
<path d="M153.963 9C150.357 28.4727 146.03 64.5331 146.03 104.2" stroke="#747474" stroke-width="3"/>
<path d="M140.26 13.3271V40.7331" stroke="#747474" stroke-width="5"/>
<path d="M140.26 42.1755V69.5815" stroke="#747474" stroke-width="4"/>
<path d="M140.26 73.9089V101.315" stroke="#747474" stroke-width="3"/>
<path d="M114.296 12.606C121.508 29.915 127.713 75.1657 125.477 107.806M114.296 12.606C121.508 29.915 127.713 75.1657 125.477 107.806" stroke="#747474" stroke-width="4"/>
<path d="M166 9C157.948 27.1818 151.021 74.7143 153.517 109M166 9C157.948 27.1818 151.021 74.7143 153.517 109" stroke="#747474" stroke-width="4"/>
<path d="M9 124.394C28.4727 128 64.5331 132.327 104.2 132.327" stroke="#747474" stroke-width="3"/>
<path d="M9 152.521C28.4727 148.915 64.5331 144.587 104.2 144.587" stroke="#747474" stroke-width="3"/>
<path d="M13.3271 138.818L40.7331 138.818" stroke="#747474" stroke-width="5"/>
<path d="M42.1758 138.818L69.5817 138.818" stroke="#747474" stroke-width="4"/>
<path d="M73.9087 138.818L101.315 138.818" stroke="#747474" stroke-width="3"/>
<path d="M13 113C30.4545 120.433 76.0857 126.827 109 124.523M13 113C30.4545 120.433 76.0857 126.827 109 124.523" stroke="#747474" stroke-width="4"/>
<path d="M12 165C29.6364 157.567 75.7429 151.173 109 153.477M12 165C29.6364 157.567 75.7429 151.173 109 153.477" stroke="#747474" stroke-width="3"/>
<circle cx="138.818" cy="138.818" r="131.375" stroke="#747474" stroke-width="6"/>
<circle cx="31.7332" cy="31.7332" r="33.2332" transform="matrix(1 0 0 -1 107.084 170.551)" stroke="#747474" stroke-width="3"/>
<path d="M177.049 138.104L204.455 138.104" stroke="#747474" stroke-width="5"/>
<path d="M205.897 138.104L233.303 138.104" stroke="#747474" stroke-width="4"/>
<path d="M237.63 138.104L265.036 138.104" stroke="#747474" stroke-width="3"/>
<path d="M167 122L270 128" stroke="#747474" stroke-width="4"/>
<path d="M268.635 147.472L168.387 153.242" stroke="#747474" stroke-width="4"/>
<path d="M268.711 143.736L171.882 145.584" stroke="#747474" stroke-width="2"/>
<path d="M171.883 129.753L268.711 131.601" stroke="#747474" stroke-width="2"/>
<path d="M139.531 177.77L139.531 205.176" stroke="#747474" stroke-width="5"/>
<path d="M139.531 206.618L139.531 234.024" stroke="#747474" stroke-width="4"/>
<path d="M139.531 238.352L139.531 265.758" stroke="#747474" stroke-width="3"/>
<path d="M155 168L150 268" stroke="#747474" stroke-width="4"/>
<path d="M130.163 269.356L124.393 169.108" stroke="#747474" stroke-width="4"/>
<path d="M133.899 269.432L132.052 172.604" stroke="#747474" stroke-width="2"/>
<path d="M147.882 172.604L146.034 269.432" stroke="#747474" stroke-width="2"/>
<circle cx="24.5211" cy="24.5211" r="26.0211" transform="matrix(1 0 0 -1 114.296 163.339)" stroke="#747474" stroke-width="3"/>
<circle cx="18.7514" cy="18.7514" r="20.2514" transform="matrix(1 0 0 -1 120.066 157.569)" stroke="#747474" stroke-width="3"/>
<path d="M109 79C101.432 82.4211 87.1081 90.0526 79 109" stroke="#747474" stroke-width="4" stroke-linecap="round"/>
<path d="M94 51C82.9009 56.0175 61.8919 67.2105 50 95" stroke="#747474" stroke-width="4" stroke-linecap="round"/>
<path d="M171 77C178.568 80.4211 192.892 88.0526 201 107" stroke="#747474" stroke-width="4" stroke-linecap="round"/>
<path d="M185 49C196.099 54.0175 217.108 65.2105 229 93" stroke="#747474" stroke-width="4" stroke-linecap="round"/>
<path d="M112 202C104.432 198.465 90.1081 190.579 82 171" stroke="#747474" stroke-width="4" stroke-linecap="round"/>
<path d="M97 230C85.9009 224.982 64.8919 213.789 53 186" stroke="#747474" stroke-width="4" stroke-linecap="round"/>
<path d="M171 200C178.568 196.465 192.892 188.579 201 169" stroke="#747474" stroke-width="4" stroke-linecap="round"/>
<path d="M185 228C196.099 222.982 217.108 211.789 229 184" stroke="#747474" stroke-width="4" stroke-linecap="round"/>
<rect width="31" height="26" transform="matrix(-0.71986 -0.694119 -0.694119 0.71986 112.992 193.518)" fill="#E2E2E2"/>
<path d="M93.9972 191.926L92.8502 193.166L85.9024 186.742C86.1801 186.422 86.5066 186.17 86.8817 185.985C87.4962 185.675 88.2091 185.47 89.0207 185.369C89.8369 185.273 90.8916 185.264 92.1847 185.342C94.1934 185.461 95.6505 185.434 96.5559 185.261C97.4657 185.082 98.1461 184.749 98.5969 184.262C99.0699 183.75 99.2836 183.15 99.2382 182.461C99.202 181.771 98.89 181.154 98.302 180.611C97.6806 180.036 97.0111 179.763 96.2935 179.791C95.5759 179.819 94.9097 180.161 94.295 180.816L93.0945 179.453C94.1003 178.548 95.1382 178.111 96.2083 178.143C97.2828 178.17 98.3196 178.645 99.3186 179.569C100.327 180.502 100.867 181.519 100.938 182.622C101.008 183.725 100.662 184.69 99.8969 185.517C99.5079 185.938 99.0395 186.272 98.4917 186.519C97.9439 186.766 97.2616 186.929 96.4445 187.007C95.6323 187.089 94.4001 187.094 92.7479 187.02C91.3724 186.954 90.4664 186.936 90.0299 186.967C89.5979 186.993 89.2019 187.057 88.8419 187.159L93.9972 191.926ZM95.6124 190.613L97.0736 191.751C96.564 192.504 96.3361 193.215 96.39 193.886C96.4531 194.556 96.7428 195.13 97.259 195.607C97.8804 196.182 98.6228 196.434 99.4862 196.363C100.35 196.293 101.139 195.87 101.855 195.096C102.536 194.36 102.865 193.586 102.843 192.777C102.825 191.971 102.481 191.259 101.812 190.64C101.396 190.255 100.933 190.004 100.421 189.886C99.9144 189.763 99.426 189.764 98.9564 189.888L97.8905 188.61L103.901 184.152L109.128 188.985L107.988 190.219L103.793 186.34L100.615 188.641C101.652 188.785 102.517 189.177 103.211 189.818C104.128 190.667 104.609 191.701 104.652 192.92C104.695 194.139 104.255 195.248 103.331 196.247C102.451 197.199 101.414 197.764 100.218 197.945C98.7576 198.172 97.4441 197.747 96.2777 196.668C95.3217 195.784 94.7877 194.794 94.6757 193.697C94.5685 192.605 94.8807 191.577 95.6124 190.613Z" fill="#868686"/>
<rect width="25.6991" height="26" transform="matrix(-0.71986 -0.694119 -0.694119 0.71986 93.5469 210.124)" fill="#E2E2E2"/>
<path d="M69.9803 215.909L68.8278 217.144L61.9086 210.689C62.1877 210.371 62.5153 210.12 62.8912 209.936C63.507 209.63 64.2209 209.427 65.0329 209.33C65.8496 209.237 66.9043 209.233 68.197 209.317C70.2052 209.445 71.6624 209.425 72.5685 209.255C73.4791 209.081 74.1609 208.751 74.6139 208.265C75.0892 207.756 75.3056 207.157 75.2632 206.467C75.2301 205.777 74.9208 205.159 74.3352 204.613C73.7164 204.036 73.0481 203.759 72.3304 203.784C71.6126 203.809 70.945 204.148 70.3273 204.8L69.1329 203.432C70.1426 202.531 71.1825 202.099 72.2524 202.136C73.3268 202.167 74.3615 202.647 75.3564 203.576C76.3608 204.513 76.896 205.533 76.9619 206.636C77.0278 207.739 76.6766 208.703 75.9083 209.526C75.5175 209.945 75.0476 210.277 74.4988 210.522C73.9499 210.767 73.2668 210.926 72.4494 211.001C71.6369 211.079 70.4046 211.078 68.7528 210.998C67.3776 210.925 66.4717 210.904 66.0351 210.933C65.6029 210.957 65.2066 211.019 64.8462 211.119L69.9803 215.909ZM73.8596 212.183C75.0143 210.945 76.0687 210.068 77.0227 209.551C77.9859 209.034 78.9084 208.804 79.7902 208.861C80.6767 208.922 81.5008 209.308 82.2625 210.019C82.8242 210.543 83.2103 211.117 83.4208 211.74C83.6358 212.359 83.6815 213.012 83.5579 213.698C83.4387 214.379 83.1712 215.1 82.7554 215.861C82.344 216.617 81.6542 217.514 80.6861 218.551C79.5402 219.779 78.4881 220.654 77.5296 221.176C76.5756 221.693 75.6531 221.923 74.7622 221.866C73.8804 221.809 73.0563 221.423 72.2898 220.708C71.2806 219.767 70.8256 218.665 70.9246 217.404C71.0471 215.889 72.0254 214.149 73.8596 212.183ZM75.1806 213.415C73.5774 215.134 72.7092 216.465 72.5761 217.409C72.4523 218.353 72.6855 219.101 73.2758 219.651C73.8661 220.202 74.6276 220.378 75.5604 220.18C76.498 219.986 77.7662 219.033 79.365 217.319C80.9727 215.596 81.8385 214.262 81.9624 213.318C82.091 212.378 81.8554 211.629 81.2556 211.069C80.6653 210.519 79.9609 210.329 79.1423 210.5C78.1045 210.725 76.7839 211.697 75.1806 213.415Z" fill="#868686"/>
<rect width="31" height="26" transform="matrix(-0.71986 -0.694119 -0.694119 0.71986 226.992 68.5176)" fill="#E2E2E2"/>
<path d="M201.591 59.2388L203.053 60.2422C202.535 61.117 202.307 61.8801 202.368 62.5315C202.439 63.1825 202.733 63.7413 203.25 64.2079C203.864 64.7617 204.573 65.0157 205.377 64.9697C206.186 64.9281 206.874 64.593 207.441 63.9646C207.982 63.3652 208.231 62.6955 208.188 61.9556C208.15 61.2108 207.829 60.5658 207.225 60.0207C206.978 59.7983 206.628 59.5697 206.173 59.3349L207.352 58.3201C207.43 58.4083 207.496 58.4764 207.549 58.5243C208.105 59.0258 208.736 59.3322 209.442 59.4434C210.149 59.5545 210.774 59.308 211.319 58.7038C211.751 58.2252 211.947 57.6827 211.906 57.0763C211.866 56.4699 211.59 55.9356 211.077 55.4733C210.57 55.0154 210.003 54.7934 209.377 54.8071C208.75 54.8209 208.101 55.1032 207.429 55.6541L206.333 54.2446C207.282 53.5136 208.255 53.1639 209.252 53.1955C210.254 53.2224 211.175 53.6152 212.016 54.374C212.596 54.8974 213.017 55.5049 213.279 56.1968C213.544 56.8837 213.611 57.5579 213.479 58.2193C213.352 58.885 213.071 59.4595 212.635 59.9429C212.22 60.4022 211.72 60.7091 211.133 60.8637C210.547 61.0184 209.911 60.9888 209.227 60.7751C209.725 61.487 209.94 62.2296 209.874 63.0028C209.812 63.7712 209.472 64.4986 208.852 65.1851C208.015 66.1132 206.966 66.5958 205.705 66.633C204.448 66.6654 203.302 66.215 202.268 65.2817C201.335 64.4401 200.81 63.4622 200.693 62.3481C200.58 61.2383 200.88 60.2019 201.591 59.2388ZM208.642 65.6395L210.117 66.7598C209.617 67.5185 209.398 68.2328 209.46 68.9026C209.531 69.5719 209.828 70.1421 210.35 70.6131C210.978 71.18 211.724 71.4228 212.586 71.3416C213.448 71.2604 214.233 70.8282 214.939 70.0451C215.611 69.3007 215.931 68.5236 215.898 67.714C215.871 66.9087 215.518 66.2008 214.842 65.5903C214.421 65.2109 213.954 64.9652 213.442 64.8533C212.933 64.7366 212.445 64.7432 211.977 64.8733L210.895 63.6083L216.851 59.0772L222.137 63.846L221.011 65.0932L216.77 61.2664L213.619 63.6065C214.659 63.7374 215.529 64.119 216.23 64.7514C217.158 65.5887 217.651 66.6166 217.709 67.8352C217.767 69.0538 217.34 70.1682 216.429 71.1785C215.561 72.1405 214.531 72.719 213.338 72.914C211.88 73.1596 210.561 72.7503 209.382 71.6862C208.415 70.814 207.869 69.8303 207.743 68.735C207.622 67.6441 207.922 66.6123 208.642 65.6395Z" fill="#868686"/>
<rect width="25.6991" height="26" transform="matrix(-0.71986 -0.694119 -0.694119 0.71986 207.547 85.124)" fill="#E2E2E2"/>
<path d="M178.665 83.0721L180.108 84.102C179.575 84.9672 179.333 85.726 179.382 86.3784C179.441 87.0306 179.724 87.5946 180.233 88.0706C180.837 88.6355 181.541 88.9023 182.346 88.8709C183.156 88.844 183.85 88.5216 184.428 87.9036C184.98 87.3141 185.241 86.6491 185.212 85.9085C185.187 85.1631 184.878 84.5124 184.283 83.9564C184.041 83.7295 183.695 83.4946 183.244 83.2516L184.441 82.2584C184.518 82.348 184.582 82.4172 184.635 82.4662C185.181 82.9777 185.807 83.2955 186.511 83.4195C187.215 83.5435 187.845 83.3084 188.401 82.7142C188.842 82.2435 189.047 81.7047 189.018 81.0977C188.989 80.4906 188.722 79.9514 188.218 79.4799C187.719 79.0128 187.156 78.7805 186.53 78.7828C185.903 78.7852 185.249 79.0557 184.567 79.5942L183.497 78.165C184.459 77.4514 185.438 77.1194 186.435 77.1692C187.436 77.2143 188.35 77.6238 189.177 78.3978C189.748 78.9316 190.157 79.5467 190.406 80.2432C190.659 80.9349 190.714 81.6102 190.57 82.2691C190.431 82.9323 190.139 83.5017 189.694 83.9771C189.271 84.4287 188.765 84.7265 188.176 84.8704C187.587 85.0143 186.952 84.9732 186.272 84.7471C186.756 85.468 186.959 86.2144 186.878 86.9862C186.802 87.7534 186.449 88.4745 185.817 89.1495C184.963 90.0622 183.905 90.5257 182.644 90.54C181.386 90.5495 180.249 90.0783 179.232 89.1264C178.314 88.2679 177.807 87.2806 177.71 86.1645C177.618 85.0529 177.936 84.0221 178.665 83.0721ZM187.86 87.1827C189.017 85.9467 190.072 85.0711 191.027 84.5557C191.991 84.0401 192.914 83.8114 193.796 83.8696C194.682 83.9323 195.506 84.3195 196.266 85.0312C196.827 85.5561 197.212 86.1306 197.422 86.7546C197.636 87.374 197.681 88.0265 197.556 88.7124C197.436 89.3935 197.167 90.114 196.75 90.8741C196.338 91.6294 195.647 92.5252 194.677 93.5615C193.529 94.788 192.476 95.6613 191.517 96.1814C190.562 96.6967 189.639 96.9254 188.748 96.8675C187.867 96.8093 187.043 96.4221 186.278 95.7059C185.27 94.7629 184.816 93.661 184.917 92.4001C185.042 90.8852 186.023 89.1461 187.86 87.1827ZM189.179 88.4171C187.573 90.1333 186.703 91.4634 186.569 92.4075C186.444 93.3513 186.676 94.099 187.265 94.6506C187.855 95.2021 188.616 95.3795 189.549 95.1827C190.487 94.9904 191.757 94.0385 193.358 92.3271C194.968 90.6062 195.836 89.2739 195.961 88.3301C196.091 87.3907 195.857 86.6408 195.258 86.0803C194.668 85.5288 193.964 85.338 193.145 85.5079C192.107 85.7313 190.785 86.701 189.179 88.4171Z" fill="#868686"/>
</svg>
